<svg width="40" height="40" viewBox="0 0 40 40" fill="none" xmlns="http://www.w3.org/2000/svg">
<path d="M14.4438 0.0868254C14.003 0.268293 13.6132 0.613082 13.3589 1.0849C13.1554 1.44783 13.1385 1.57486 13.1554 2.15556C13.1554 2.51849 13.1724 2.88143 13.1893 2.99031C13.2063 3.13548 12.1044 4.22429 7.95116 8.12584L2.67906 13.0799H2.03488C1.47546 13.0799 1.3568 13.1162 1.01776 13.3158C0.81433 13.461 0.526145 13.7332 0.390528 13.9147C-0.40622 15.0942 0.0684385 16.7819 1.33984 17.2537L1.62803 17.3626L5.52701 26.8352L9.42599 36.3078L9.18866 36.7433C8.98523 37.1244 8.95133 37.2696 8.95133 37.8321C8.95133 38.3947 8.98523 38.5398 9.17171 38.9028C9.59551 39.6649 10.3414 40.0642 11.1551 39.9916C11.6976 39.9371 12.0366 39.7375 12.4604 39.2657L12.7994 38.8846L21.4789 36.2352L30.1584 33.5858L30.4127 33.7491C30.5991 33.858 30.8704 33.9124 31.2942 33.9124C31.8366 33.9124 31.9553 33.8943 32.3113 33.6584C33.3284 32.9869 33.6166 31.6259 32.9555 30.5734L32.6842 30.1379L35.3288 19.4676C36.7866 13.6062 37.9733 8.79728 37.9733 8.77913C37.9733 8.76098 38.1428 8.72469 38.3293 8.68839C38.8209 8.61581 39.3973 8.19843 39.6855 7.70847C40.2957 6.6741 39.9906 5.33124 39.0074 4.65981C38.6514 4.44205 38.5327 4.40576 37.9902 4.40576C37.4647 4.40576 37.3122 4.44205 36.9901 4.64166C36.7866 4.78684 36.5493 4.98645 36.4646 5.09533L36.312 5.3131L26.7849 3.49842C21.5467 2.51849 17.2409 1.72003 17.2239 1.72003C17.19 1.72003 17.1053 1.57486 17.0375 1.39339C16.6984 0.558641 16.0712 0.0686784 15.2575 0.0142381C14.9524 -0.0220555 14.6303 0.0142384 14.4438 0.0868254ZM26.7341 4.36946C31.7519 5.29495 35.8882 6.07526 35.9051 6.07526C35.9221 6.07526 35.939 6.20229 35.9221 6.34746L35.9051 6.60152L30.6161 8.90616C27.7173 10.1764 25.3101 11.2108 25.2762 11.2108C25.2423 11.2108 25.0558 11.0656 24.8524 10.9023C24.276 10.4486 23.8353 10.3579 22.852 10.5212C22.7503 10.5394 19.3769 6.63781 16.8679 3.6073C16.7662 3.48027 16.7662 3.42583 16.9188 3.17178C17.0205 3.00846 17.0883 2.80884 17.0883 2.71811C17.0883 2.59108 17.1222 2.57293 17.3596 2.60923C17.4782 2.64552 21.7162 3.42583 26.7341 4.36946ZM14.9354 4.29688C15.2575 4.31502 15.5287 4.29688 15.7661 4.20614C16.1051 4.07912 16.139 4.07911 16.2577 4.22429C16.3763 4.36946 21.5467 10.5212 21.8858 10.9204C22.0383 11.1019 22.0383 11.1201 21.8349 11.5011C21.7162 11.7189 21.5976 12.1181 21.5637 12.3722L21.5128 12.8622L18.3089 14.2595L15.1049 15.6568L14.8167 15.4027C14.3251 14.9309 14.0709 14.822 13.3928 14.822C12.8503 14.822 12.7316 14.8402 12.3756 15.0761C12.1553 15.2394 11.8671 15.5297 11.6976 15.7656C11.4941 16.0923 11.3755 16.2012 11.2568 16.183C10.9008 16.1467 4.40817 15.1124 4.23865 15.0761C4.11999 15.0579 4.03522 14.9309 3.98437 14.6587C3.93351 14.4409 3.78094 14.1143 3.64533 13.9147L3.39105 13.5517L5.69653 11.3741C6.95098 10.1764 9.29037 7.98067 10.8669 6.49264L13.7318 3.77062L14.0878 3.98838C14.3421 4.16985 14.6303 4.27873 14.9354 4.29688ZM36.2611 7.63588C36.3459 7.7992 36.0747 8.28917 33.3793 12.6444L30.3788 17.4714L29.8532 17.417C29.4803 17.3807 29.2091 17.3988 28.9887 17.4896L28.6666 17.6166L27.124 15.8019C26.2764 14.8039 25.5474 13.9147 25.4966 13.8421C25.4118 13.7151 25.4288 13.6243 25.5135 13.2977C25.5813 13.0799 25.6322 12.717 25.6152 12.4811L25.5983 12.0455L30.8365 9.75905C33.7183 8.50693 36.1086 7.47256 36.1255 7.47256C36.1425 7.45441 36.1933 7.54515 36.2611 7.63588ZM37.1257 8.50693C37.1596 8.57951 32.6842 26.9078 32.074 29.2124C31.9383 29.7205 31.7519 29.8294 31.6841 29.4302C31.5654 28.8132 30.4974 21.5545 30.5144 21.5363C30.8195 21.3548 31.1925 20.9556 31.362 20.629C31.5654 20.2842 31.5824 20.1209 31.5824 19.5583C31.5824 18.9595 31.5654 18.8506 31.3111 18.4332L31.0399 17.9795L31.4637 17.2718C35.0575 11.4467 36.9562 8.41619 36.9901 8.41619C37.0579 8.41619 37.1087 8.47063 37.1257 8.50693ZM22.0214 13.9873C22.1231 14.1324 22.3774 14.3502 22.5808 14.4772C22.9198 14.695 23.0555 14.7131 23.581 14.7131C24.0556 14.7131 24.2591 14.6768 24.4964 14.5135L24.8015 14.3139L26.2764 16.0741C28.1919 18.3425 28.0224 18.0884 27.8359 18.4514C27.7512 18.6147 27.6495 18.7599 27.5986 18.7599C27.5139 18.7599 16.1899 16.9815 15.6983 16.8907C15.4948 16.8544 15.427 16.8 15.427 16.6367C15.427 16.4552 15.6644 16.3282 18.1733 15.2394C19.682 14.5861 21.0551 13.9691 21.2416 13.8965C21.7162 13.6969 21.818 13.6969 22.0214 13.9873ZM7.91725 16.5641L11.3077 17.1085L11.4433 17.5622C11.6298 18.161 11.9688 18.5965 12.4604 18.8687C12.6808 18.9958 12.8673 19.0865 12.8842 19.1046C12.8842 19.1046 12.4774 22.7521 11.9688 27.1981C11.4602 31.6441 11.0364 35.3641 11.0364 35.473C11.0364 35.6363 10.9686 35.6726 10.5787 35.7452L10.121 35.836L10.0024 35.5819C9.93455 35.4367 8.22239 31.2811 6.18814 26.3452L2.49259 17.3807L2.74687 17.2537C3.15372 17.0722 3.52666 16.7274 3.74704 16.3282C3.95046 15.9653 3.96742 15.9471 4.23865 16.0015C4.40817 16.0015 6.05252 16.2556 7.91725 16.5641ZM21.4111 18.7054C24.7337 19.2317 27.48 19.6672 27.4969 19.6672C27.5139 19.6672 27.5647 19.8124 27.5986 19.9938C27.6325 20.1753 27.7003 20.4294 27.7681 20.5564C27.8699 20.7923 27.8699 20.8104 27.3104 21.3911C26.9883 21.7178 23.5471 25.2382 19.6481 29.2124L12.5452 36.453L12.1553 36.1445C11.8332 35.8904 11.7823 35.7997 11.8162 35.6182C11.8332 35.4912 12.2739 31.7529 12.7825 27.3251C13.2911 22.8792 13.7318 19.1954 13.7657 19.1591C13.7827 19.1228 13.8674 19.0865 13.9522 19.0865C14.2065 19.0865 14.8507 18.5602 15.088 18.1792C15.2066 17.9614 15.3253 17.7799 15.3253 17.7799C15.3592 17.7436 18.0885 18.161 21.4111 18.7054ZM29.3108 21.7178C29.599 21.7541 29.6837 21.8085 29.7176 21.9537C29.7346 22.0444 29.9889 23.7139 30.294 25.6556C30.5991 27.5973 30.8365 29.285 30.8704 29.412C30.9043 29.6116 30.8873 29.6479 30.6839 29.6842C30.3279 29.7568 29.8024 30.2105 29.5651 30.6641C29.2938 31.1722 29.2091 31.8981 29.3955 32.4425C29.4633 32.6603 29.5142 32.8417 29.4972 32.8599C29.4633 32.8962 13.0537 37.9228 13.0368 37.9047C13.0368 37.9047 13.0029 37.7414 12.9859 37.5599L12.9351 37.2333L20.6991 29.3031L28.4801 21.373L28.7175 21.5C28.8531 21.6089 29.1074 21.6815 29.3108 21.7178Z" fill="#E0E0E0"/>
</svg>
