<svg width="59" height="66" viewBox="0 0 59 66" fill="none" xmlns="http://www.w3.org/2000/svg">
<path fill-rule="evenodd" clip-rule="evenodd" d="M42.4861 47.361C43.3299 47.361 44.0139 48.045 44.0139 48.8888C44.0139 49.7326 43.3299 50.4166 42.4861 50.4166H28.7361C28.6463 50.4166 28.5583 50.4088 28.4728 50.394C23.565 50.1775 19.0583 48.4173 15.4262 45.5872C15.1308 45.357 14.6857 44.9755 14.3557 44.6884C14.0736 44.4429 13.7129 44.3055 13.3389 44.3055H9.6389C8.79513 44.3055 8.11112 43.6215 8.11112 42.7777C8.11112 41.9339 8.79513 41.2499 9.6389 41.2499H11.1667C12.0104 41.2499 12.6945 40.5659 12.6945 39.7221C12.6945 38.8784 12.0104 38.1944 11.1667 38.1944H7.34724C6.50347 38.1944 5.81946 37.5104 5.81946 36.6666C5.81946 35.8228 6.50347 35.1388 7.34724 35.1388H8.11112C8.95489 35.1388 9.6389 34.4548 9.6389 33.611C9.6389 32.7673 8.95489 32.0833 8.11112 32.0833C7.49336 32.0833 6.965 31.638 6.86221 31.0288C6.82487 30.8075 6.7952 30.6293 6.79031 30.593C6.65383 29.5814 6.58335 28.5489 6.58335 27.4999C6.58335 14.8434 16.8435 4.58325 29.5 4.58325C33.3195 4.58325 37.1389 4.58325 40.9583 4.58325C41.8021 4.58325 42.4861 5.26726 42.4861 6.11103C42.4861 6.9548 41.8021 7.63881 40.9583 7.63881H38.6667C37.8229 7.63881 37.1389 8.32282 37.1389 9.16659C37.1389 10.0104 37.8229 10.6944 38.6667 10.6944H47.8333C48.6771 10.6944 49.3611 11.3784 49.3611 12.2221C49.3611 13.0654 48.678 13.749 47.835 13.7499L45.5417 13.7499C44.6979 13.7499 44.0139 14.4339 44.0139 15.2777C44.0139 16.1215 44.6979 16.8055 45.5417 16.8055H48.831C49.4088 16.8055 49.9383 17.1308 50.1888 17.6514C50.3394 17.9644 50.4978 18.3019 50.6014 18.5459C51.7701 21.2966 52.4167 24.3228 52.4167 27.4999C52.4167 28.4982 52.3529 29.4816 52.229 30.4462C52.2082 30.6084 52.1763 30.8165 52.1415 31.0297C52.0418 31.6412 51.5085 32.0833 50.8889 32.0833C50.0451 32.0833 49.3611 32.7673 49.3611 33.611C49.3611 34.4548 50.0451 35.1388 50.8889 35.1388H51.6528C52.4966 35.1388 53.1806 35.8228 53.1806 36.6666C53.1806 37.5104 52.4966 38.1944 51.6528 38.1944H50.6721C50.1174 38.1944 49.6074 38.4955 49.3303 38.976C49.1503 39.288 48.9503 39.6275 48.8016 39.8592C48.4531 40.4023 48.0824 40.9297 47.6906 41.4401C47.2972 41.9528 46.8825 42.4483 46.448 42.9255C46.2095 43.1873 45.8232 43.5752 45.5218 43.8732C45.2399 44.1519 44.8589 44.3055 44.4624 44.3055H40.1945C39.3507 44.3055 38.6667 44.9895 38.6667 45.8333C38.6667 46.6711 39.3412 47.3515 40.1768 47.3609L42.4861 47.361Z" fill="url(#paint0_linear_102_3122)"/>
<g opacity="0.1">
<circle cx="29.5" cy="27.4999" r="16.8056" fill="#F3A02A" style="mix-blend-mode:multiply"/>
</g>
<g filter="url(#filter0_d_102_3122)">
<path fill-rule="evenodd" clip-rule="evenodd" d="M23.3889 27.5H35.6111V47.5572C35.6111 50.2388 32.7557 51.9552 30.3875 50.6972L29.5 50.2257L28.6126 50.6972C26.2444 51.9552 23.3889 50.2388 23.3889 47.5572V27.5Z" fill="#F56123"/>
</g>
<circle style="mix-blend-mode:multiply" opacity="0.2" cx="29.4999" cy="29.0278" r="15.2778" fill="#F0BA6E"/>
<g filter="url(#filter1_d_102_3122)">
<circle cx="29.4999" cy="27.4999" r="15.2778" fill="url(#paint1_linear_102_3122)"/>
</g>
<mask id="mask0_102_3122" style="mask-type:luminance" maskUnits="userSpaceOnUse" x="14" y="12" width="31" height="31">
<circle cx="29.4999" cy="27.4999" r="15.2778" fill="white"/>
</mask>
<g mask="url(#mask0_102_3122)">
<path d="M14.6041 27.5003C14.6041 35.727 21.2732 42.3961 29.5 42.3961C37.7267 42.3961 44.3958 35.727 44.3958 27.5003" stroke="#DA913B" stroke-width="3.55556"/>
<path d="M40.033 38.0326C42.7286 35.337 44.3958 31.613 44.3958 27.4996C44.3958 25.2582 43.9008 23.1324 43.014 21.2256" stroke="#E1A04B" stroke-width="3.55556" stroke-linecap="round"/>
<path d="M41.2601 18.3563C38.5345 14.8557 34.2802 12.604 29.5 12.604C21.2732 12.604 14.6041 19.2731 14.6041 27.4998C14.6041 31.6132 16.2714 35.3372 18.967 38.0328" stroke="#E1A04B" stroke-width="3.55556" stroke-linecap="round"/>
<path opacity="0.6" d="M41.264 18.3613C38.5385 14.8578 34.2825 12.604 29.5 12.604C24.6903 12.604 20.413 14.8835 17.6896 18.4211" stroke="#FFC875" stroke-width="3.55556" stroke-linecap="round"/>
<path opacity="0.8" d="M29.4997 12.604C26.7052 12.604 24.0905 13.3735 21.8558 14.7122" stroke="#FFECD0" stroke-width="3.55556" stroke-linecap="round"/>
<g style="mix-blend-mode:multiply" opacity="0.2">
<rect x="32.4326" y="33.166" width="4.58333" height="23.6806" rx="2.29167" transform="rotate(45 32.4326 33.166)" stroke="#EBB570" stroke-width="4.58333"/>
</g>
<g style="mix-blend-mode:multiply" opacity="0.2">
<mask id="path-13-inside-1_102_3122" fill="white">
<path fill-rule="evenodd" clip-rule="evenodd" d="M30.5223 35.1358C31.3645 34.2936 32.73 34.2936 33.5722 35.1358V35.1358C34.4144 35.978 34.4144 37.3435 33.5722 38.1857L18.7972 52.9608C17.9549 53.803 16.5894 53.803 15.7472 52.9608V52.9608C14.905 52.1186 14.905 50.7531 15.7472 49.9109L30.5223 35.1358Z"/>
</mask>
<path d="M28.5439 33.1574L13.7688 47.9325L23.8255 57.9891L38.6005 43.2141L28.5439 33.1574ZM20.7755 54.9392L35.5506 40.1641L25.494 30.1075L10.7189 44.8825L20.7755 54.9392ZM20.7755 47.9325C22.7104 49.8673 22.7104 53.0043 20.7755 54.9392L10.7189 44.8825C7.09963 48.5018 7.09964 54.3698 10.7189 57.9891L20.7755 47.9325ZM13.7688 47.9325C15.7037 45.9976 18.8407 45.9976 20.7755 47.9325L10.7189 57.9891C14.3382 61.6084 20.2062 61.6084 23.8255 57.9891L13.7688 47.9325ZM28.5439 40.1641C26.609 38.2293 26.609 35.0923 28.5439 33.1574L38.6005 43.2141C42.2198 39.5948 42.2198 33.7268 38.6005 30.1075L28.5439 40.1641ZM38.6005 30.1075C34.9812 26.4882 29.1132 26.4882 25.494 30.1075L35.5506 40.1641C33.6157 42.099 30.4787 42.099 28.5439 40.1641L38.6005 30.1075Z" fill="#EBB570" mask="url(#path-13-inside-1_102_3122)"/>
</g>
<g style="mix-blend-mode:multiply" opacity="0.2">
<path d="M13.2339 32.8702L9.66297 36.441C7.11535 38.9887 2.98482 38.9887 0.437191 36.441C-2.11044 33.8934 -2.11044 29.7629 0.43719 27.2153L4.00808 23.6444C6.55571 21.0968 10.6862 21.0968 13.2339 23.6444C15.7815 26.192 15.7815 30.3225 13.2339 32.8702Z" stroke="#EBB570" stroke-width="7.11111"/>
</g>
<g style="mix-blend-mode:multiply" opacity="0.2">
<rect x="43.1271" y="8.72162" width="4.58333" height="23.6806" rx="2.29167" transform="rotate(45 43.1271 8.72162)" stroke="#EBB570" stroke-width="4.58333"/>
</g>
<g style="mix-blend-mode:multiply" opacity="0.2">
<mask id="path-17-inside-2_102_3122" fill="white">
<path fill-rule="evenodd" clip-rule="evenodd" d="M43.3178 8.72174C44.16 7.87953 45.5255 7.87953 46.3677 8.72174V8.72174C47.21 9.56396 47.21 10.9295 46.3677 11.7717L29.4321 28.7073C28.5899 29.5495 27.2244 29.5495 26.3822 28.7073V28.7073C25.5399 27.8651 25.5399 26.4996 26.3822 25.6574L43.3178 8.72174Z"/>
</mask>
<path d="M41.3394 6.74336L24.4038 23.679L34.4604 33.7356L51.3961 16.8L41.3394 6.74336ZM31.4105 30.6857L48.3461 13.7501L38.2895 3.69343L21.3538 20.6291L31.4105 30.6857ZM31.4105 23.679C33.3453 25.6139 33.3453 28.7509 31.4105 30.6857L21.3538 20.6291C17.7346 24.2484 17.7346 30.1164 21.3538 33.7356L31.4105 23.679ZM24.4038 23.679C26.3386 21.7442 29.4756 21.7442 31.4105 23.679L21.3538 33.7356C24.9731 37.3549 30.8411 37.3549 34.4604 33.7356L24.4038 23.679ZM41.3394 13.7501C39.4046 11.8152 39.4046 8.67821 41.3394 6.74336L51.3961 16.8C55.0153 13.1807 55.0153 7.31271 51.3961 3.69343L41.3394 13.7501ZM51.3961 3.69343C47.7768 0.0741547 41.9088 0.0741488 38.2895 3.69343L48.3461 13.7501C46.4113 15.6849 43.2743 15.6849 41.3394 13.7501L51.3961 3.69343Z" fill="#EBB570" mask="url(#path-17-inside-2_102_3122)"/>
</g>
</g>
<g filter="url(#filter2_d_102_3122)">
<circle cx="29.5001" cy="27.4998" r="11.4583" fill="url(#paint2_linear_102_3122)"/>
<circle cx="29.5001" cy="27.4998" r="13.2361" stroke="#D78834" stroke-opacity="0.06" stroke-width="3.55556"/>
</g>
<mask id="mask1_102_3122" style="mask-type:luminance" maskUnits="userSpaceOnUse" x="18" y="16" width="23" height="23">
<circle cx="29.5001" cy="27.4998" r="11.4583" fill="white"/>
</mask>
<g mask="url(#mask1_102_3122)">
<g style="mix-blend-mode:multiply" opacity="0.2">
<path d="M14.7618 32.8711L11.1909 36.442C8.6433 38.9897 4.51277 38.9897 1.96515 36.442C-0.582482 33.8944 -0.582482 29.7639 1.96515 27.2162L5.53603 23.6454C8.08366 21.0977 12.2142 21.0977 14.7618 23.6454C17.3094 26.193 17.3094 30.3235 14.7618 32.8711Z" stroke="#EBB570" stroke-width="7.11111"/>
</g>
<g style="mix-blend-mode:multiply" opacity="0.2">
<rect x="44.9025" y="3.24066" width="4.58333" height="23.6806" rx="2.29167" transform="rotate(45 44.9025 3.24066)" stroke="#EBB570" stroke-width="4.58333"/>
</g>
<g style="mix-blend-mode:multiply" opacity="0.2">
<rect x="33.1967" y="31.6391" width="4.58333" height="23.6806" rx="2.29167" transform="rotate(45 33.1967 31.6391)" stroke="#EBB570" stroke-width="4.58333"/>
</g>
<g style="mix-blend-mode:multiply" opacity="0.2">
<mask id="path-25-inside-3_102_3122" fill="white">
<path fill-rule="evenodd" clip-rule="evenodd" d="M45.0363 3.05255C45.8785 2.21034 47.244 2.21034 48.0862 3.05255V3.05255C48.9285 3.89477 48.9285 5.26027 48.0862 6.10249L33.3112 20.8775C32.469 21.7198 31.1035 21.7198 30.2613 20.8775V20.8775C29.419 20.0353 29.419 18.6698 30.2613 17.8276L45.0363 3.05255Z"/>
</mask>
<path d="M43.0579 1.07417L28.2829 15.8492L38.3395 25.9059L53.1146 11.1308L43.0579 1.07417ZM35.2896 22.8559L50.0646 8.08087L40.008 -1.97576L25.2329 12.7993L35.2896 22.8559ZM35.2896 15.8492C37.2244 17.7841 37.2244 20.9211 35.2896 22.8559L25.2329 12.7993C21.6137 16.4186 21.6137 22.2866 25.2329 25.9059L35.2896 15.8492ZM28.2829 15.8492C30.2177 13.9144 33.3547 13.9144 35.2896 15.8492L25.2329 25.9059C28.8522 29.5251 34.7202 29.5251 38.3395 25.9059L28.2829 15.8492ZM43.0579 8.08087C41.1231 6.14602 41.1231 3.00902 43.0579 1.07417L53.1146 11.1308C56.7338 7.51153 56.7338 1.64352 53.1146 -1.97576L43.0579 8.08087ZM53.1146 -1.97576C49.4953 -5.59504 43.6273 -5.59504 40.008 -1.97576L50.0646 8.08087C48.1298 10.0157 44.9928 10.0157 43.0579 8.08087L53.1146 -1.97576Z" fill="#EBB570" mask="url(#path-25-inside-3_102_3122)"/>
</g>
<g style="mix-blend-mode:multiply" opacity="0.2">
<mask id="path-27-inside-4_102_3122" fill="white">
<path fill-rule="evenodd" clip-rule="evenodd" d="M31.0389 33.7425C31.8811 32.9003 33.2466 32.9003 34.0888 33.7425V33.7425C34.931 34.5847 34.931 35.9502 34.0888 36.7924L19.3138 51.5675C18.4715 52.4097 17.106 52.4097 16.2638 51.5675V51.5675C15.4216 50.7253 15.4216 49.3598 16.2638 48.5175L31.0389 33.7425Z"/>
</mask>
<path d="M29.0605 31.7641L14.2854 46.5392L24.3421 56.5958L39.1171 41.8207L29.0605 31.7641ZM21.2921 53.5459L36.0672 38.7708L26.0106 28.7142L11.2355 43.4892L21.2921 53.5459ZM21.2921 46.5392C23.227 48.474 23.227 51.611 21.2921 53.5459L11.2355 43.4892C7.61623 47.1085 7.61623 52.9765 11.2355 56.5958L21.2921 46.5392ZM14.2854 46.5392C16.2203 44.6043 19.3573 44.6043 21.2921 46.5392L11.2355 56.5958C14.8548 60.2151 20.7228 60.2151 24.3421 56.5958L14.2854 46.5392ZM29.0605 38.7708C27.1256 36.836 27.1256 33.699 29.0605 31.7641L39.1171 41.8207C42.7364 38.2015 42.7364 32.3335 39.1171 28.7142L29.0605 38.7708ZM39.1171 28.7142C35.4978 25.0949 29.6298 25.0949 26.0106 28.7142L36.0672 38.7708C34.1323 40.7057 30.9953 40.7057 29.0605 38.7708L39.1171 28.7142Z" fill="#EBB570" mask="url(#path-27-inside-4_102_3122)"/>
</g>
<path opacity="0.8" d="M29.5002 16.4233C27.9984 16.4233 26.5664 16.7222 25.2605 17.2637" stroke="#FFECD0" stroke-width="3.55556" stroke-linecap="round"/>
</g>
<g filter="url(#filter3_d_102_3122)">
<mask id="path-30-outside-5_102_3122" maskUnits="userSpaceOnUse" x="19.3889" y="15.8613" width="20" height="21" fill="black">
<rect fill="white" x="19.3889" y="15.8613" width="20" height="21"/>
<path fill-rule="evenodd" clip-rule="evenodd" d="M32.9375 19.8613C32.9375 19.8613 32.1736 19.8613 31.0278 20.6252C30.2979 21.1118 29.878 21.7533 29.6693 22.155C29.6131 22.1537 29.5566 22.153 29.5 22.153C26.125 22.153 23.3889 24.547 23.3889 27.5002C23.3889 30.4534 26.125 32.8474 29.5 32.8474C32.8751 32.8474 35.6111 30.4534 35.6111 27.5002C35.6111 25.6928 34.5863 24.0949 33.0175 23.127C33.0032 23.0657 32.977 22.9959 32.9375 22.9169C32.1736 21.3891 32.9375 19.8613 32.9375 19.8613Z"/>
</mask>
<path fill-rule="evenodd" clip-rule="evenodd" d="M32.9375 19.8613C32.9375 19.8613 32.1736 19.8613 31.0278 20.6252C30.2979 21.1118 29.878 21.7533 29.6693 22.155C29.6131 22.1537 29.5566 22.153 29.5 22.153C26.125 22.153 23.3889 24.547 23.3889 27.5002C23.3889 30.4534 26.125 32.8474 29.5 32.8474C32.8751 32.8474 35.6111 30.4534 35.6111 27.5002C35.6111 25.6928 34.5863 24.0949 33.0175 23.127C33.0032 23.0657 32.977 22.9959 32.9375 22.9169C32.1736 21.3891 32.9375 19.8613 32.9375 19.8613Z" fill="white"/>
<path d="M31.0278 20.6252L33.0001 23.5836L33.0001 23.5836L31.0278 20.6252ZM32.9375 19.8613L36.1177 21.4514C36.6688 20.3492 36.6099 19.0403 35.9621 17.9921C35.3142 16.9438 34.1698 16.3058 32.9375 16.3058V19.8613ZM29.6693 22.155L29.5847 25.7096C30.9416 25.7419 32.1986 24.9988 32.8244 23.7944L29.6693 22.155ZM33.0175 23.127L29.5537 23.9298C29.768 24.8543 30.3429 25.6547 31.1506 26.153L33.0175 23.127ZM32.9375 22.9169L36.1177 21.3268L36.1177 21.3268L32.9375 22.9169ZM33.0001 23.5836C33.264 23.4077 33.4051 23.371 33.3891 23.3756C33.3837 23.3771 33.3453 23.3876 33.2702 23.3976C33.2328 23.4026 33.1867 23.4074 33.1314 23.411C33.1037 23.4128 33.0738 23.4143 33.0415 23.4153C33.0253 23.4158 33.0086 23.4162 32.9913 23.4165C32.9826 23.4166 32.9738 23.4167 32.9649 23.4168C32.9604 23.4168 32.9559 23.4168 32.9513 23.4169C32.949 23.4169 32.9467 23.4169 32.9444 23.4169C32.9433 23.4169 32.9416 23.4169 32.941 23.4169C32.9393 23.4169 32.9375 23.4169 32.9375 19.8613C32.9375 16.3058 32.9358 16.3058 32.934 16.3058C32.9335 16.3058 32.9317 16.3058 32.9305 16.3058C32.9282 16.3058 32.9258 16.3058 32.9235 16.3058C32.9187 16.3058 32.9139 16.3058 32.9091 16.3059C32.8994 16.306 32.8895 16.3061 32.8793 16.3062C32.859 16.3066 32.8379 16.3071 32.8159 16.3077C32.7718 16.3091 32.7243 16.3114 32.6736 16.3146C32.572 16.3212 32.4572 16.332 32.3304 16.3489C32.0762 16.3828 31.7752 16.441 31.4356 16.5381C30.7512 16.7336 29.9374 17.0789 29.0555 17.6668L33.0001 23.5836ZM32.8244 23.7944C32.8383 23.7675 32.8657 23.7215 32.9038 23.6749C32.9407 23.6298 32.9738 23.6011 33.0001 23.5836L29.0555 17.6668C27.6601 18.5971 26.8898 19.7928 26.5142 20.5157L32.8244 23.7944ZM29.5 25.7086C29.5284 25.7086 29.5566 25.7089 29.5847 25.7096L29.7539 18.6005C29.6695 18.5985 29.5849 18.5974 29.5 18.5974V25.7086ZM26.9445 27.5002C26.9445 27.172 27.0882 26.773 27.5202 26.395C27.9592 26.0109 28.6485 25.7086 29.5 25.7086V18.5974C24.6221 18.5974 19.8334 22.1522 19.8334 27.5002H26.9445ZM29.5 29.2919C28.6485 29.2919 27.9592 28.9896 27.5202 28.6054C27.0882 28.2275 26.9445 27.8285 26.9445 27.5002H19.8334C19.8334 32.8482 24.6221 36.403 29.5 36.403V29.2919ZM32.0556 27.5002C32.0556 27.8285 31.9119 28.2275 31.4799 28.6054C31.0409 28.9896 30.3516 29.2919 29.5 29.2919V36.403C34.378 36.403 39.1667 32.8482 39.1667 27.5002H32.0556ZM31.1506 26.153C31.8406 26.5787 32.0556 27.1142 32.0556 27.5002H39.1667C39.1667 24.2715 37.3321 21.6111 34.8843 20.101L31.1506 26.153ZM29.7573 24.507C29.71 24.4123 29.6195 24.2136 29.5537 23.9298L36.4812 22.3242C36.387 21.9177 36.244 21.5795 36.1177 21.3268L29.7573 24.507ZM32.9375 19.8613C29.7573 18.2712 29.7567 18.2725 29.7561 18.2737C29.7559 18.2742 29.7552 18.2754 29.7548 18.2763C29.754 18.278 29.7531 18.2797 29.7522 18.2815C29.7505 18.2851 29.7487 18.2887 29.7468 18.2925C29.7431 18.3 29.7392 18.308 29.7351 18.3164C29.7269 18.3333 29.718 18.352 29.7085 18.3724C29.6894 18.4133 29.6676 18.4614 29.6438 18.5162C29.5964 18.6257 29.5402 18.7641 29.4817 18.9281C29.366 19.2519 29.2329 19.6974 29.1439 20.2317C28.9686 21.2835 28.9373 22.8668 29.7573 24.507L36.1177 21.3268C36.1739 21.4391 36.1426 21.4947 36.1582 21.4007C36.1647 21.3621 36.1748 21.3301 36.1785 21.3198C36.1797 21.3166 36.1772 21.3238 36.1686 21.3437C36.1642 21.3538 36.1581 21.3676 36.1498 21.3853C36.1456 21.3942 36.1409 21.4041 36.1356 21.4151C36.1329 21.4206 36.1301 21.4264 36.1271 21.4324C36.1257 21.4354 36.1241 21.4385 36.1226 21.4417C36.1218 21.4433 36.121 21.4449 36.1202 21.4465C36.1198 21.4473 36.1191 21.4485 36.1189 21.449C36.1183 21.4502 36.1177 21.4514 32.9375 19.8613Z" fill="white" mask="url(#path-30-outside-5_102_3122)"/>
</g>
<g filter="url(#filter4_i_102_3122)">
<path fill-rule="evenodd" clip-rule="evenodd" d="M32.9375 19.8613C32.9375 19.8613 32.1736 19.8613 31.0278 20.6252C30.2979 21.1118 29.878 21.7533 29.6693 22.155C29.6131 22.1537 29.5566 22.153 29.5 22.153C26.125 22.153 23.3889 24.547 23.3889 27.5002C23.3889 30.4534 26.125 32.8474 29.5 32.8474C32.8751 32.8474 35.6111 30.4534 35.6111 27.5002C35.6111 25.7761 34.6786 24.2426 33.2308 23.2647C33.1035 23.1433 32.9877 23.0173 32.9375 22.9169C32.1736 21.3891 32.9375 19.8613 32.9375 19.8613Z" fill="url(#paint3_linear_102_3122)"/>
</g>
<path d="M31.0278 20.6252L33.0001 23.5836L33.0001 23.5836L31.0278 20.6252ZM32.9375 19.8613L36.1177 21.4514C36.6688 20.3492 36.6099 19.0403 35.9621 17.9921C35.3142 16.9438 34.1698 16.3058 32.9375 16.3058V19.8613ZM29.6693 22.155L29.5847 25.7096C30.9416 25.7419 32.1986 24.9988 32.8244 23.7943L29.6693 22.155ZM33.2308 23.2647L30.7763 25.8372C30.9204 25.9747 31.0757 26.0998 31.2408 26.2112L33.2308 23.2647ZM32.9375 22.9169L29.7573 24.507L29.7573 24.507L32.9375 22.9169ZM33.0001 23.5836C33.264 23.4077 33.4051 23.371 33.3891 23.3756C33.3837 23.3771 33.3453 23.3876 33.2702 23.3976C33.2328 23.4026 33.1867 23.4074 33.1314 23.411C33.1037 23.4128 33.0738 23.4143 33.0415 23.4153C33.0253 23.4158 33.0086 23.4162 32.9913 23.4165C32.9826 23.4166 32.9738 23.4167 32.9649 23.4168C32.9604 23.4168 32.9559 23.4168 32.9513 23.4169C32.949 23.4169 32.9467 23.4169 32.9444 23.4169C32.9433 23.4169 32.9416 23.4169 32.941 23.4169C32.9393 23.4169 32.9375 23.4169 32.9375 19.8613C32.9375 16.3058 32.9358 16.3058 32.934 16.3058C32.9335 16.3058 32.9317 16.3058 32.9305 16.3058C32.9282 16.3058 32.9258 16.3058 32.9235 16.3058C32.9187 16.3058 32.9139 16.3058 32.9091 16.3059C32.8994 16.306 32.8895 16.3061 32.8793 16.3062C32.859 16.3066 32.8379 16.3071 32.8158 16.3077C32.7718 16.3091 32.7243 16.3114 32.6735 16.3146C32.572 16.3212 32.4572 16.332 32.3303 16.3489C32.0762 16.3828 31.7752 16.441 31.4356 16.5381C30.7512 16.7336 29.9374 17.0789 29.0555 17.6668L33.0001 23.5836ZM32.8244 23.7943C32.8383 23.7675 32.8657 23.7215 32.9038 23.6749C32.9407 23.6298 32.9738 23.6011 33.0001 23.5836L29.0555 17.6668C27.6601 18.5971 26.8898 19.7928 26.5142 20.5157L32.8244 23.7943ZM29.5 25.7086C29.5284 25.7086 29.5566 25.7089 29.5847 25.7096L29.7539 18.6005C29.6695 18.5985 29.5849 18.5974 29.5 18.5974V25.7086ZM26.9445 27.5002C26.9445 27.172 27.0882 26.773 27.5202 26.395C27.9592 26.0109 28.6485 25.7086 29.5 25.7086V18.5974C24.6221 18.5974 19.8334 22.1522 19.8334 27.5002H26.9445ZM29.5 29.2919C28.6485 29.2919 27.9592 28.9896 27.5202 28.6054C27.0882 28.2275 26.9445 27.8285 26.9445 27.5002H19.8334C19.8334 32.8482 24.6221 36.403 29.5 36.403V29.2919ZM32.0556 27.5002C32.0556 27.8285 31.9119 28.2275 31.4799 28.6054C31.0409 28.9896 30.3516 29.2919 29.5 29.2919V36.403C34.378 36.403 39.1667 32.8482 39.1667 27.5002H32.0556ZM31.2408 26.2112C31.8605 26.6298 32.0556 27.1284 32.0556 27.5002H39.1667C39.1667 24.4238 37.4967 21.8554 35.2208 20.3182L31.2408 26.2112ZM29.7573 24.507C30.1185 25.2292 30.6731 25.7388 30.7763 25.8372L35.6853 20.6923C35.6687 20.6765 35.6964 20.7013 35.7469 20.7598C35.7737 20.7909 35.8214 20.848 35.8788 20.9284C35.933 21.0041 36.0242 21.1397 36.1177 21.3268L29.7573 24.507ZM32.9375 19.8613C29.7573 18.2712 29.7567 18.2725 29.7561 18.2737C29.7559 18.2742 29.7552 18.2754 29.7548 18.2763C29.754 18.278 29.7531 18.2797 29.7522 18.2815C29.7505 18.2851 29.7487 18.2887 29.7468 18.2925C29.7431 18.3 29.7392 18.308 29.7351 18.3164C29.7269 18.3333 29.718 18.352 29.7085 18.3724C29.6894 18.4133 29.6676 18.4614 29.6438 18.5162C29.5963 18.6257 29.5402 18.7641 29.4817 18.9281C29.366 19.2519 29.2329 19.6974 29.1439 20.2317C28.9686 21.2835 28.9373 22.8668 29.7573 24.507L36.1177 21.3268C36.1739 21.4391 36.1426 21.4947 36.1582 21.4007C36.1647 21.3621 36.1748 21.3301 36.1785 21.3198C36.1797 21.3166 36.1772 21.3237 36.1686 21.3437C36.1642 21.3538 36.1581 21.3676 36.1498 21.3853C36.1456 21.3942 36.1409 21.4041 36.1356 21.4151C36.1329 21.4206 36.1301 21.4264 36.1271 21.4324C36.1257 21.4354 36.1241 21.4385 36.1226 21.4417C36.1218 21.4433 36.121 21.4449 36.1202 21.4465C36.1198 21.4473 36.1191 21.4485 36.1189 21.4489C36.1183 21.4502 36.1177 21.4514 32.9375 19.8613Z" fill="#FFECD0"/>
<circle cx="27.3993" cy="26.9273" r="0.954861" fill="#FFECD0"/>
<circle cx="31.6007" cy="26.9273" r="0.954861" fill="#FFECD0"/>
<defs>
<filter id="filter0_d_102_3122" x="16.2778" y="27.5" width="26.4444" height="37.8399" filterUnits="userSpaceOnUse" color-interpolation-filters="sRGB">
<feFlood flood-opacity="0" result="BackgroundImageFix"/>
<feColorMatrix in="SourceAlpha" type="matrix" values="0 0 0 0 0 0 0 0 0 0 0 0 0 0 0 0 0 0 127 0" result="hardAlpha"/>
<feOffset dy="7.11111"/>
<feGaussianBlur stdDeviation="3.55556"/>
<feColorMatrix type="matrix" values="0 0 0 0 0.937255 0 0 0 0 0.67451 0 0 0 0 0.235294 0 0 0 0.2 0"/>
<feBlend mode="darken" in2="BackgroundImageFix" result="effect1_dropShadow_102_3122"/>
<feBlend mode="normal" in="SourceGraphic" in2="effect1_dropShadow_102_3122" result="shape"/>
</filter>
<filter id="filter1_d_102_3122" x="-5.43594e-05" y="5.11106" width="59" height="59.0001" filterUnits="userSpaceOnUse" color-interpolation-filters="sRGB">
<feFlood flood-opacity="0" result="BackgroundImageFix"/>
<feColorMatrix in="SourceAlpha" type="matrix" values="0 0 0 0 0 0 0 0 0 0 0 0 0 0 0 0 0 0 127 0" result="hardAlpha"/>
<feOffset dy="7.11111"/>
<feGaussianBlur stdDeviation="7.11111"/>
<feColorMatrix type="matrix" values="0 0 0 0 0.752941 0 0 0 0 0.266667 0 0 0 0 0.266667 0 0 0 0.2 0"/>
<feBlend mode="normal" in2="BackgroundImageFix" result="effect1_dropShadow_102_3122"/>
<feBlend mode="normal" in="SourceGraphic" in2="effect1_dropShadow_102_3122" result="shape"/>
</filter>
<filter id="filter2_d_102_3122" x="7.37509" y="8.93028" width="44.2499" height="44.2501" filterUnits="userSpaceOnUse" color-interpolation-filters="sRGB">
<feFlood flood-opacity="0" result="BackgroundImageFix"/>
<feColorMatrix in="SourceAlpha" type="matrix" values="0 0 0 0 0 0 0 0 0 0 0 0 0 0 0 0 0 0 127 0" result="hardAlpha"/>
<feOffset dy="3.55556"/>
<feGaussianBlur stdDeviation="3.55556"/>
<feColorMatrix type="matrix" values="0 0 0 0 0.643137 0 0 0 0 0.301509 0 0 0 0 0.0196078 0 0 0 0.2 0"/>
<feBlend mode="normal" in2="BackgroundImageFix" result="effect1_dropShadow_102_3122"/>
<feBlend mode="normal" in="SourceGraphic" in2="effect1_dropShadow_102_3122" result="shape"/>
</filter>
<filter id="filter3_d_102_3122" x="12.7223" y="12.7501" width="33.5556" height="34.3196" filterUnits="userSpaceOnUse" color-interpolation-filters="sRGB">
<feFlood flood-opacity="0" result="BackgroundImageFix"/>
<feColorMatrix in="SourceAlpha" type="matrix" values="0 0 0 0 0 0 0 0 0 0 0 0 0 0 0 0 0 0 127 0" result="hardAlpha"/>
<feOffset dy="3.55556"/>
<feGaussianBlur stdDeviation="3.55556"/>
<feColorMatrix type="matrix" values="0 0 0 0 0.625 0 0 0 0 0.409034 0 0 0 0 0.12934 0 0 0 0.22 0"/>
<feBlend mode="normal" in2="BackgroundImageFix" result="effect1_dropShadow_102_3122"/>
<feBlend mode="normal" in="SourceGraphic" in2="effect1_dropShadow_102_3122" result="shape"/>
</filter>
<filter id="filter4_i_102_3122" x="19.8334" y="16.3057" width="19.3334" height="23.653" filterUnits="userSpaceOnUse" color-interpolation-filters="sRGB">
<feFlood flood-opacity="0" result="BackgroundImageFix"/>
<feBlend mode="normal" in="SourceGraphic" in2="BackgroundImageFix" result="shape"/>
<feColorMatrix in="SourceAlpha" type="matrix" values="0 0 0 0 0 0 0 0 0 0 0 0 0 0 0 0 0 0 127 0" result="hardAlpha"/>
<feOffset dy="3.55556"/>
<feGaussianBlur stdDeviation="1.77778"/>
<feComposite in2="hardAlpha" operator="arithmetic" k2="-1" k3="1"/>
<feColorMatrix type="matrix" values="0 0 0 0 0.801791 0 0 0 0 0.623822 0 0 0 0 0.41026 0 0 0 1 0"/>
<feBlend mode="normal" in2="shape" result="effect1_innerShadow_102_3122"/>
</filter>
<linearGradient id="paint0_linear_102_3122" x1="5.81946" y1="4.58325" x2="5.81946" y2="50.4166" gradientUnits="userSpaceOnUse">
<stop stop-color="#FFDD72"/>
<stop offset="1" stop-color="#FFC32B"/>
</linearGradient>
<linearGradient id="paint1_linear_102_3122" x1="14.2222" y1="12.2222" x2="14.2222" y2="42.7777" gradientUnits="userSpaceOnUse">
<stop stop-color="#F9C685"/>
<stop offset="1" stop-color="#DB963B"/>
</linearGradient>
<linearGradient id="paint2_linear_102_3122" x1="18.0417" y1="16.0415" x2="18.0417" y2="38.9582" gradientUnits="userSpaceOnUse">
<stop stop-color="#FDDA9D"/>
<stop offset="1" stop-color="#EFB35E"/>
</linearGradient>
<linearGradient id="paint3_linear_102_3122" x1="23.3889" y1="19.8613" x2="23.3889" y2="32.8474" gradientUnits="userSpaceOnUse">
<stop stop-color="#F6C280"/>
<stop offset="1" stop-color="#E2A65E"/>
</linearGradient>
</defs>
</svg>
