<svg width="1920" height="1080" viewBox="0 0 1920 1080" fill="none" xmlns="http://www.w3.org/2000/svg">
<g clip-path="url(#clip0_1485_31863)">
<rect width="1920" height="1080" fill="white"/>
<rect width="1920" height="1080" fill="#242A32"/>
<circle opacity="0.5" cx="1915" cy="248" r="142.5" stroke="#E06C2D" stroke-width="55"/>
<circle opacity="0.5" cx="48" cy="44" r="235.5" stroke="#E06C2D" stroke-width="55"/>
<g opacity="0.5" clip-path="url(#clip1_1485_31863)">
<path d="M278.228 592.455C280.563 592.455 282.455 590.563 282.455 588.228C282.455 585.893 280.563 584 278.228 584C275.893 584 274 585.893 274 588.228C274 590.563 275.893 592.455 278.228 592.455Z" fill="#E06C2D"/>
<path d="M278.228 629.306C280.563 629.306 282.455 627.413 282.455 625.078C282.455 622.743 280.563 620.851 278.228 620.851C275.893 620.851 274 622.743 274 625.078C274 627.413 275.893 629.306 278.228 629.306Z" fill="#E06C2D"/>
<path d="M278.228 703.007C280.563 703.007 282.455 701.114 282.455 698.779C282.455 696.444 280.563 694.552 278.228 694.552C275.893 694.552 274 696.444 274 698.779C274 701.114 275.893 703.007 278.228 703.007Z" fill="#E06C2D"/>
<path d="M278.228 776.708C280.563 776.708 282.455 774.816 282.455 772.481C282.455 770.146 280.563 768.253 278.228 768.253C275.893 768.253 274 770.146 274 772.481C274 774.816 275.893 776.708 278.228 776.708Z" fill="#E06C2D"/>
<path d="M278.228 813.558C280.563 813.558 282.455 811.665 282.455 809.33C282.455 806.995 280.563 805.103 278.228 805.103C275.893 805.103 274 806.995 274 809.33C274 811.665 275.893 813.558 278.228 813.558Z" fill="#E06C2D"/>
<path d="M278.228 666.156C280.563 666.156 282.455 664.264 282.455 661.929C282.455 659.594 280.563 657.701 278.228 657.701C275.893 657.701 274 659.594 274 661.929C274 664.264 275.893 666.156 278.228 666.156Z" fill="#E06C2D"/>
<path d="M278.228 739.857C280.563 739.857 282.455 737.965 282.455 735.63C282.455 733.295 280.563 731.402 278.228 731.402C275.893 731.402 274 733.295 274 735.63C274 737.965 275.893 739.857 278.228 739.857Z" fill="#E06C2D"/>
<path d="M315.078 592.455C317.413 592.455 319.306 590.563 319.306 588.228C319.306 585.893 317.413 584 315.078 584C312.743 584 310.851 585.893 310.851 588.228C310.851 590.563 312.743 592.455 315.078 592.455Z" fill="#E06C2D"/>
<path d="M315.078 629.306C317.413 629.306 319.306 627.413 319.306 625.078C319.306 622.743 317.413 620.851 315.078 620.851C312.743 620.851 310.851 622.743 310.851 625.078C310.851 627.413 312.743 629.306 315.078 629.306Z" fill="#E06C2D"/>
<path d="M315.078 703.007C317.413 703.007 319.306 701.114 319.306 698.779C319.306 696.444 317.413 694.552 315.078 694.552C312.743 694.552 310.851 696.444 310.851 698.779C310.851 701.114 312.743 703.007 315.078 703.007Z" fill="#E06C2D"/>
<path d="M315.078 776.708C317.413 776.708 319.306 774.816 319.306 772.481C319.306 770.146 317.413 768.253 315.078 768.253C312.743 768.253 310.851 770.146 310.851 772.481C310.851 774.816 312.743 776.708 315.078 776.708Z" fill="#E06C2D"/>
<path d="M315.078 813.558C317.413 813.558 319.306 811.665 319.306 809.33C319.306 806.995 317.413 805.103 315.078 805.103C312.743 805.103 310.851 806.995 310.851 809.33C310.851 811.665 312.743 813.558 315.078 813.558Z" fill="#E06C2D"/>
<path d="M315.078 666.156C317.413 666.156 319.306 664.264 319.306 661.929C319.306 659.594 317.413 657.701 315.078 657.701C312.743 657.701 310.851 659.594 310.851 661.929C310.851 664.264 312.743 666.156 315.078 666.156Z" fill="#E06C2D"/>
<path d="M315.078 739.857C317.413 739.857 319.306 737.965 319.306 735.63C319.306 733.295 317.413 731.402 315.078 731.402C312.743 731.402 310.851 733.295 310.851 735.63C310.851 737.965 312.743 739.857 315.078 739.857Z" fill="#E06C2D"/>
<path d="M351.929 592.455C354.264 592.455 356.156 590.563 356.156 588.228C356.156 585.893 354.264 584 351.929 584C349.594 584 347.701 585.893 347.701 588.228C347.701 590.563 349.594 592.455 351.929 592.455Z" fill="#E06C2D"/>
<path d="M351.929 629.306C354.264 629.306 356.156 627.413 356.156 625.078C356.156 622.743 354.264 620.851 351.929 620.851C349.594 620.851 347.701 622.743 347.701 625.078C347.701 627.413 349.594 629.306 351.929 629.306Z" fill="#E06C2D"/>
<path d="M351.929 703.007C354.264 703.007 356.156 701.114 356.156 698.779C356.156 696.444 354.264 694.552 351.929 694.552C349.594 694.552 347.701 696.444 347.701 698.779C347.701 701.114 349.594 703.007 351.929 703.007Z" fill="#E06C2D"/>
<path d="M351.929 776.708C354.264 776.708 356.156 774.816 356.156 772.481C356.156 770.146 354.264 768.253 351.929 768.253C349.594 768.253 347.701 770.146 347.701 772.481C347.701 774.816 349.594 776.708 351.929 776.708Z" fill="#E06C2D"/>
<path d="M351.929 813.558C354.264 813.558 356.156 811.665 356.156 809.33C356.156 806.995 354.264 805.103 351.929 805.103C349.594 805.103 347.701 806.995 347.701 809.33C347.701 811.665 349.594 813.558 351.929 813.558Z" fill="#E06C2D"/>
<path d="M351.929 666.156C354.264 666.156 356.156 664.264 356.156 661.929C356.156 659.594 354.264 657.701 351.929 657.701C349.594 657.701 347.701 659.594 347.701 661.929C347.701 664.264 349.594 666.156 351.929 666.156Z" fill="#E06C2D"/>
<path d="M351.929 739.857C354.264 739.857 356.156 737.965 356.156 735.63C356.156 733.295 354.264 731.402 351.929 731.402C349.594 731.402 347.701 733.295 347.701 735.63C347.701 737.965 349.594 739.857 351.929 739.857Z" fill="#E06C2D"/>
<path d="M388.779 592.455C391.114 592.455 393.007 590.563 393.007 588.228C393.007 585.893 391.114 584 388.779 584C386.444 584 384.552 585.893 384.552 588.228C384.552 590.563 386.444 592.455 388.779 592.455Z" fill="#E06C2D"/>
<path d="M388.779 629.306C391.114 629.306 393.007 627.413 393.007 625.078C393.007 622.743 391.114 620.851 388.779 620.851C386.444 620.851 384.552 622.743 384.552 625.078C384.552 627.413 386.444 629.306 388.779 629.306Z" fill="#E06C2D"/>
<path d="M388.779 703.007C391.114 703.007 393.007 701.114 393.007 698.779C393.007 696.444 391.114 694.552 388.779 694.552C386.444 694.552 384.552 696.444 384.552 698.779C384.552 701.114 386.444 703.007 388.779 703.007Z" fill="#E06C2D"/>
<path d="M388.779 776.708C391.114 776.708 393.007 774.816 393.007 772.481C393.007 770.146 391.114 768.253 388.779 768.253C386.444 768.253 384.552 770.146 384.552 772.481C384.552 774.816 386.444 776.708 388.779 776.708Z" fill="#E06C2D"/>
<path d="M388.779 813.558C391.114 813.558 393.007 811.665 393.007 809.33C393.007 806.995 391.114 805.103 388.779 805.103C386.444 805.103 384.552 806.995 384.552 809.33C384.552 811.665 386.444 813.558 388.779 813.558Z" fill="#E06C2D"/>
<path d="M388.779 666.156C391.114 666.156 393.007 664.264 393.007 661.929C393.007 659.594 391.114 657.701 388.779 657.701C386.444 657.701 384.552 659.594 384.552 661.929C384.552 664.264 386.444 666.156 388.779 666.156Z" fill="#E06C2D"/>
<path d="M388.779 739.857C391.114 739.857 393.007 737.965 393.007 735.63C393.007 733.295 391.114 731.402 388.779 731.402C386.444 731.402 384.552 733.295 384.552 735.63C384.552 737.965 386.444 739.857 388.779 739.857Z" fill="#E06C2D"/>
<path d="M425.63 592.455C427.965 592.455 429.857 590.563 429.857 588.228C429.857 585.893 427.965 584 425.63 584C423.295 584 421.402 585.893 421.402 588.228C421.402 590.563 423.295 592.455 425.63 592.455Z" fill="#E06C2D"/>
<path d="M425.63 629.306C427.965 629.306 429.857 627.413 429.857 625.078C429.857 622.743 427.965 620.851 425.63 620.851C423.295 620.851 421.402 622.743 421.402 625.078C421.402 627.413 423.295 629.306 425.63 629.306Z" fill="#E06C2D"/>
<path d="M425.63 703.007C427.965 703.007 429.857 701.114 429.857 698.779C429.857 696.444 427.965 694.552 425.63 694.552C423.295 694.552 421.402 696.444 421.402 698.779C421.402 701.114 423.295 703.007 425.63 703.007Z" fill="#E06C2D"/>
<path d="M425.63 776.708C427.965 776.708 429.857 774.816 429.857 772.481C429.857 770.146 427.965 768.253 425.63 768.253C423.295 768.253 421.402 770.146 421.402 772.481C421.402 774.816 423.295 776.708 425.63 776.708Z" fill="#E06C2D"/>
<path d="M425.63 813.558C427.965 813.558 429.857 811.665 429.857 809.33C429.857 806.995 427.965 805.103 425.63 805.103C423.295 805.103 421.402 806.995 421.402 809.33C421.402 811.665 423.295 813.558 425.63 813.558Z" fill="#E06C2D"/>
<path d="M425.63 666.156C427.965 666.156 429.857 664.264 429.857 661.929C429.857 659.594 427.965 657.701 425.63 657.701C423.295 657.701 421.402 659.594 421.402 661.929C421.402 664.264 423.295 666.156 425.63 666.156Z" fill="#E06C2D"/>
<path d="M425.63 739.857C427.965 739.857 429.857 737.965 429.857 735.63C429.857 733.295 427.965 731.402 425.63 731.402C423.295 731.402 421.402 733.295 421.402 735.63C421.402 737.965 423.295 739.857 425.63 739.857Z" fill="#E06C2D"/>
<path d="M462.481 592.455C464.816 592.455 466.708 590.563 466.708 588.228C466.708 585.893 464.816 584 462.481 584C460.146 584 458.253 585.893 458.253 588.228C458.253 590.563 460.146 592.455 462.481 592.455Z" fill="#E06C2D"/>
<path d="M462.481 629.306C464.816 629.306 466.708 627.413 466.708 625.078C466.708 622.743 464.816 620.851 462.481 620.851C460.146 620.851 458.253 622.743 458.253 625.078C458.253 627.413 460.146 629.306 462.481 629.306Z" fill="#E06C2D"/>
<path d="M462.481 703.007C464.816 703.007 466.708 701.114 466.708 698.779C466.708 696.444 464.816 694.552 462.481 694.552C460.146 694.552 458.253 696.444 458.253 698.779C458.253 701.114 460.146 703.007 462.481 703.007Z" fill="#E06C2D"/>
<path d="M462.481 776.708C464.816 776.708 466.708 774.816 466.708 772.481C466.708 770.146 464.816 768.253 462.481 768.253C460.146 768.253 458.253 770.146 458.253 772.481C458.253 774.816 460.146 776.708 462.481 776.708Z" fill="#E06C2D"/>
<path d="M462.481 813.558C464.816 813.558 466.708 811.665 466.708 809.33C466.708 806.995 464.816 805.103 462.481 805.103C460.146 805.103 458.253 806.995 458.253 809.33C458.253 811.665 460.146 813.558 462.481 813.558Z" fill="#E06C2D"/>
<path d="M462.481 666.156C464.816 666.156 466.708 664.264 466.708 661.929C466.708 659.594 464.816 657.701 462.481 657.701C460.146 657.701 458.253 659.594 458.253 661.929C458.253 664.264 460.146 666.156 462.481 666.156Z" fill="#E06C2D"/>
<path d="M462.481 739.857C464.816 739.857 466.708 737.965 466.708 735.63C466.708 733.295 464.816 731.402 462.481 731.402C460.146 731.402 458.253 733.295 458.253 735.63C458.253 737.965 460.146 739.857 462.481 739.857Z" fill="#E06C2D"/>
<path d="M499.331 592.455C501.665 592.455 503.558 590.563 503.558 588.228C503.558 585.893 501.665 584 499.331 584C496.996 584 495.103 585.893 495.103 588.228C495.103 590.563 496.996 592.455 499.331 592.455Z" fill="#E06C2D"/>
<path d="M499.331 629.306C501.665 629.306 503.558 627.413 503.558 625.078C503.558 622.743 501.665 620.851 499.331 620.851C496.996 620.851 495.103 622.743 495.103 625.078C495.103 627.413 496.996 629.306 499.331 629.306Z" fill="#E06C2D"/>
<path d="M499.331 703.007C501.665 703.007 503.558 701.114 503.558 698.779C503.558 696.444 501.665 694.552 499.331 694.552C496.996 694.552 495.103 696.444 495.103 698.779C495.103 701.114 496.996 703.007 499.331 703.007Z" fill="#E06C2D"/>
<path d="M499.331 776.708C501.665 776.708 503.558 774.816 503.558 772.481C503.558 770.146 501.665 768.253 499.331 768.253C496.996 768.253 495.103 770.146 495.103 772.481C495.103 774.816 496.996 776.708 499.331 776.708Z" fill="#E06C2D"/>
<path d="M499.331 813.558C501.665 813.558 503.558 811.665 503.558 809.33C503.558 806.995 501.665 805.103 499.331 805.103C496.996 805.103 495.103 806.995 495.103 809.33C495.103 811.665 496.996 813.558 499.331 813.558Z" fill="#E06C2D"/>
<path d="M499.331 666.156C501.665 666.156 503.558 664.264 503.558 661.929C503.558 659.594 501.665 657.701 499.331 657.701C496.996 657.701 495.103 659.594 495.103 661.929C495.103 664.264 496.996 666.156 499.331 666.156Z" fill="#E06C2D"/>
<path d="M499.331 739.857C501.665 739.857 503.558 737.965 503.558 735.63C503.558 733.295 501.665 731.402 499.331 731.402C496.996 731.402 495.103 733.295 495.103 735.63C495.103 737.965 496.996 739.857 499.331 739.857Z" fill="#E06C2D"/>
</g>
<g opacity="0.5" clip-path="url(#clip2_1485_31863)">
<path d="M1633.43 802.86C1635.88 802.86 1637.86 800.877 1637.86 798.43C1637.86 795.983 1635.88 794 1633.43 794C1630.98 794 1629 795.983 1629 798.43C1629 800.877 1630.98 802.86 1633.43 802.86Z" fill="#E06C2D"/>
<path d="M1633.43 841.473C1635.88 841.473 1637.86 839.489 1637.86 837.043C1637.86 834.596 1635.88 832.613 1633.43 832.613C1630.98 832.613 1629 834.596 1629 837.043C1629 839.489 1630.98 841.473 1633.43 841.473Z" fill="#E06C2D"/>
<path d="M1633.43 918.699C1635.88 918.699 1637.86 916.715 1637.86 914.269C1637.86 911.822 1635.88 909.839 1633.43 909.839C1630.98 909.839 1629 911.822 1629 914.269C1629 916.715 1630.98 918.699 1633.43 918.699Z" fill="#E06C2D"/>
<path d="M1633.43 995.925C1635.88 995.925 1637.86 993.942 1637.86 991.495C1637.86 989.048 1635.88 987.065 1633.43 987.065C1630.98 987.065 1629 989.048 1629 991.495C1629 993.942 1630.98 995.925 1633.43 995.925Z" fill="#E06C2D"/>
<path d="M1633.43 1034.54C1635.88 1034.54 1637.86 1032.55 1637.86 1030.11C1637.86 1027.66 1635.88 1025.68 1633.43 1025.68C1630.98 1025.68 1629 1027.66 1629 1030.11C1629 1032.55 1630.98 1034.54 1633.43 1034.54Z" fill="#E06C2D"/>
<path d="M1633.43 880.086C1635.88 880.086 1637.86 878.102 1637.86 875.656C1637.86 873.209 1635.88 871.226 1633.43 871.226C1630.98 871.226 1629 873.209 1629 875.656C1629 878.102 1630.98 880.086 1633.43 880.086Z" fill="#E06C2D"/>
<path d="M1633.43 957.311C1635.88 957.311 1637.86 955.328 1637.86 952.881C1637.86 950.435 1635.88 948.452 1633.43 948.452C1630.98 948.452 1629 950.435 1629 952.881C1629 955.328 1630.98 957.311 1633.43 957.311Z" fill="#E06C2D"/>
<path d="M1672.04 802.86C1674.49 802.86 1676.47 800.877 1676.47 798.43C1676.47 795.983 1674.49 794 1672.04 794C1669.6 794 1667.61 795.983 1667.61 798.43C1667.61 800.877 1669.6 802.86 1672.04 802.86Z" fill="#E06C2D"/>
<path d="M1672.04 841.473C1674.49 841.473 1676.47 839.489 1676.47 837.043C1676.47 834.596 1674.49 832.613 1672.04 832.613C1669.6 832.613 1667.61 834.596 1667.61 837.043C1667.61 839.489 1669.6 841.473 1672.04 841.473Z" fill="#E06C2D"/>
<path d="M1672.04 918.699C1674.49 918.699 1676.47 916.715 1676.47 914.269C1676.47 911.822 1674.49 909.839 1672.04 909.839C1669.6 909.839 1667.61 911.822 1667.61 914.269C1667.61 916.715 1669.6 918.699 1672.04 918.699Z" fill="#E06C2D"/>
<path d="M1672.04 995.925C1674.49 995.925 1676.47 993.942 1676.47 991.495C1676.47 989.048 1674.49 987.065 1672.04 987.065C1669.6 987.065 1667.61 989.048 1667.61 991.495C1667.61 993.942 1669.6 995.925 1672.04 995.925Z" fill="#E06C2D"/>
<path d="M1672.04 1034.54C1674.49 1034.54 1676.47 1032.55 1676.47 1030.11C1676.47 1027.66 1674.49 1025.68 1672.04 1025.68C1669.6 1025.68 1667.61 1027.66 1667.61 1030.11C1667.61 1032.55 1669.6 1034.54 1672.04 1034.54Z" fill="#E06C2D"/>
<path d="M1672.04 880.086C1674.49 880.086 1676.47 878.102 1676.47 875.656C1676.47 873.209 1674.49 871.226 1672.04 871.226C1669.6 871.226 1667.61 873.209 1667.61 875.656C1667.61 878.102 1669.6 880.086 1672.04 880.086Z" fill="#E06C2D"/>
<path d="M1672.04 957.311C1674.49 957.311 1676.47 955.328 1676.47 952.881C1676.47 950.435 1674.49 948.452 1672.04 948.452C1669.6 948.452 1667.61 950.435 1667.61 952.881C1667.61 955.328 1669.6 957.311 1672.04 957.311Z" fill="#E06C2D"/>
<path d="M1710.66 802.86C1713.1 802.86 1715.09 800.877 1715.09 798.43C1715.09 795.983 1713.1 794 1710.66 794C1708.21 794 1706.23 795.983 1706.23 798.43C1706.23 800.877 1708.21 802.86 1710.66 802.86Z" fill="#E06C2D"/>
<path d="M1710.66 841.473C1713.1 841.473 1715.09 839.489 1715.09 837.043C1715.09 834.596 1713.1 832.613 1710.66 832.613C1708.21 832.613 1706.23 834.596 1706.23 837.043C1706.23 839.489 1708.21 841.473 1710.66 841.473Z" fill="#E06C2D"/>
<path d="M1710.66 918.699C1713.1 918.699 1715.09 916.715 1715.09 914.269C1715.09 911.822 1713.1 909.839 1710.66 909.839C1708.21 909.839 1706.23 911.822 1706.23 914.269C1706.23 916.715 1708.21 918.699 1710.66 918.699Z" fill="#E06C2D"/>
<path d="M1710.66 995.925C1713.1 995.925 1715.09 993.942 1715.09 991.495C1715.09 989.048 1713.1 987.065 1710.66 987.065C1708.21 987.065 1706.23 989.048 1706.23 991.495C1706.23 993.942 1708.21 995.925 1710.66 995.925Z" fill="#E06C2D"/>
<path d="M1710.66 1034.54C1713.1 1034.54 1715.09 1032.55 1715.09 1030.11C1715.09 1027.66 1713.1 1025.68 1710.66 1025.68C1708.21 1025.68 1706.23 1027.66 1706.23 1030.11C1706.23 1032.55 1708.21 1034.54 1710.66 1034.54Z" fill="#E06C2D"/>
<path d="M1710.66 880.086C1713.1 880.086 1715.09 878.102 1715.09 875.656C1715.09 873.209 1713.1 871.226 1710.66 871.226C1708.21 871.226 1706.23 873.209 1706.23 875.656C1706.23 878.102 1708.21 880.086 1710.66 880.086Z" fill="#E06C2D"/>
<path d="M1710.66 957.311C1713.1 957.311 1715.09 955.328 1715.09 952.881C1715.09 950.435 1713.1 948.452 1710.66 948.452C1708.21 948.452 1706.23 950.435 1706.23 952.881C1706.23 955.328 1708.21 957.311 1710.66 957.311Z" fill="#E06C2D"/>
<path d="M1749.27 802.86C1751.72 802.86 1753.7 800.877 1753.7 798.43C1753.7 795.983 1751.72 794 1749.27 794C1746.82 794 1744.84 795.983 1744.84 798.43C1744.84 800.877 1746.82 802.86 1749.27 802.86Z" fill="#E06C2D"/>
<path d="M1749.27 841.473C1751.72 841.473 1753.7 839.489 1753.7 837.043C1753.7 834.596 1751.72 832.613 1749.27 832.613C1746.82 832.613 1744.84 834.596 1744.84 837.043C1744.84 839.489 1746.82 841.473 1749.27 841.473Z" fill="#E06C2D"/>
<path d="M1749.27 918.699C1751.72 918.699 1753.7 916.715 1753.7 914.269C1753.7 911.822 1751.72 909.839 1749.27 909.839C1746.82 909.839 1744.84 911.822 1744.84 914.269C1744.84 916.715 1746.82 918.699 1749.27 918.699Z" fill="#E06C2D"/>
<path d="M1749.27 995.925C1751.72 995.925 1753.7 993.942 1753.7 991.495C1753.7 989.048 1751.72 987.065 1749.27 987.065C1746.82 987.065 1744.84 989.048 1744.84 991.495C1744.84 993.942 1746.82 995.925 1749.27 995.925Z" fill="#E06C2D"/>
<path d="M1749.27 1034.54C1751.72 1034.54 1753.7 1032.55 1753.7 1030.11C1753.7 1027.66 1751.72 1025.68 1749.27 1025.68C1746.82 1025.68 1744.84 1027.66 1744.84 1030.11C1744.84 1032.55 1746.82 1034.54 1749.27 1034.54Z" fill="#E06C2D"/>
<path d="M1749.27 880.086C1751.72 880.086 1753.7 878.102 1753.7 875.656C1753.7 873.209 1751.72 871.226 1749.27 871.226C1746.82 871.226 1744.84 873.209 1744.84 875.656C1744.84 878.102 1746.82 880.086 1749.27 880.086Z" fill="#E06C2D"/>
<path d="M1749.27 957.311C1751.72 957.311 1753.7 955.328 1753.7 952.881C1753.7 950.435 1751.72 948.452 1749.27 948.452C1746.82 948.452 1744.84 950.435 1744.84 952.881C1744.84 955.328 1746.82 957.311 1749.27 957.311Z" fill="#E06C2D"/>
<path d="M1787.88 802.86C1790.33 802.86 1792.31 800.877 1792.31 798.43C1792.31 795.983 1790.33 794 1787.88 794C1785.44 794 1783.45 795.983 1783.45 798.43C1783.45 800.877 1785.44 802.86 1787.88 802.86Z" fill="#E06C2D"/>
<path d="M1787.88 841.473C1790.33 841.473 1792.31 839.489 1792.31 837.043C1792.31 834.596 1790.33 832.613 1787.88 832.613C1785.44 832.613 1783.45 834.596 1783.45 837.043C1783.45 839.489 1785.44 841.473 1787.88 841.473Z" fill="#E06C2D"/>
<path d="M1787.88 918.699C1790.33 918.699 1792.31 916.715 1792.31 914.269C1792.31 911.822 1790.33 909.839 1787.88 909.839C1785.44 909.839 1783.45 911.822 1783.45 914.269C1783.45 916.715 1785.44 918.699 1787.88 918.699Z" fill="#E06C2D"/>
<path d="M1787.88 995.925C1790.33 995.925 1792.31 993.942 1792.31 991.495C1792.31 989.048 1790.33 987.065 1787.88 987.065C1785.44 987.065 1783.45 989.048 1783.45 991.495C1783.45 993.942 1785.44 995.925 1787.88 995.925Z" fill="#E06C2D"/>
<path d="M1787.88 1034.54C1790.33 1034.54 1792.31 1032.55 1792.31 1030.11C1792.31 1027.66 1790.33 1025.68 1787.88 1025.68C1785.44 1025.68 1783.45 1027.66 1783.45 1030.11C1783.45 1032.55 1785.44 1034.54 1787.88 1034.54Z" fill="#E06C2D"/>
<path d="M1787.88 880.086C1790.33 880.086 1792.31 878.102 1792.31 875.656C1792.31 873.209 1790.33 871.226 1787.88 871.226C1785.44 871.226 1783.45 873.209 1783.45 875.656C1783.45 878.102 1785.44 880.086 1787.88 880.086Z" fill="#E06C2D"/>
<path d="M1787.88 957.311C1790.33 957.311 1792.31 955.328 1792.31 952.881C1792.31 950.435 1790.33 948.452 1787.88 948.452C1785.44 948.452 1783.45 950.435 1783.45 952.881C1783.45 955.328 1785.44 957.311 1787.88 957.311Z" fill="#E06C2D"/>
<path d="M1826.5 802.86C1828.94 802.86 1830.93 800.877 1830.93 798.43C1830.93 795.983 1828.94 794 1826.5 794C1824.05 794 1822.07 795.983 1822.07 798.43C1822.07 800.877 1824.05 802.86 1826.5 802.86Z" fill="#E06C2D"/>
<path d="M1826.5 841.473C1828.94 841.473 1830.93 839.489 1830.93 837.043C1830.93 834.596 1828.94 832.613 1826.5 832.613C1824.05 832.613 1822.07 834.596 1822.07 837.043C1822.07 839.489 1824.05 841.473 1826.5 841.473Z" fill="#E06C2D"/>
<path d="M1826.5 918.699C1828.94 918.699 1830.93 916.715 1830.93 914.269C1830.93 911.822 1828.94 909.839 1826.5 909.839C1824.05 909.839 1822.07 911.822 1822.07 914.269C1822.07 916.715 1824.05 918.699 1826.5 918.699Z" fill="#E06C2D"/>
<path d="M1826.5 995.925C1828.94 995.925 1830.93 993.942 1830.93 991.495C1830.93 989.048 1828.94 987.065 1826.5 987.065C1824.05 987.065 1822.07 989.048 1822.07 991.495C1822.07 993.942 1824.05 995.925 1826.5 995.925Z" fill="#E06C2D"/>
<path d="M1826.5 1034.54C1828.94 1034.54 1830.93 1032.55 1830.93 1030.11C1830.93 1027.66 1828.94 1025.68 1826.5 1025.68C1824.05 1025.68 1822.07 1027.66 1822.07 1030.11C1822.07 1032.55 1824.05 1034.54 1826.5 1034.54Z" fill="#E06C2D"/>
<path d="M1826.5 880.086C1828.94 880.086 1830.93 878.102 1830.93 875.656C1830.93 873.209 1828.94 871.226 1826.5 871.226C1824.05 871.226 1822.07 873.209 1822.07 875.656C1822.07 878.102 1824.05 880.086 1826.5 880.086Z" fill="#E06C2D"/>
<path d="M1826.5 957.311C1828.94 957.311 1830.93 955.328 1830.93 952.881C1830.93 950.435 1828.94 948.452 1826.5 948.452C1824.05 948.452 1822.07 950.435 1822.07 952.881C1822.07 955.328 1824.05 957.311 1826.5 957.311Z" fill="#E06C2D"/>
<path d="M1865.11 802.86C1867.55 802.86 1869.54 800.877 1869.54 798.43C1869.54 795.983 1867.55 794 1865.11 794C1862.66 794 1860.68 795.983 1860.68 798.43C1860.68 800.877 1862.66 802.86 1865.11 802.86Z" fill="#E06C2D"/>
<path d="M1865.11 841.473C1867.55 841.473 1869.54 839.489 1869.54 837.043C1869.54 834.596 1867.55 832.613 1865.11 832.613C1862.66 832.613 1860.68 834.596 1860.68 837.043C1860.68 839.489 1862.66 841.473 1865.11 841.473Z" fill="#E06C2D"/>
<path d="M1865.11 918.699C1867.55 918.699 1869.54 916.715 1869.54 914.269C1869.54 911.822 1867.55 909.839 1865.11 909.839C1862.66 909.839 1860.68 911.822 1860.68 914.269C1860.68 916.715 1862.66 918.699 1865.11 918.699Z" fill="#E06C2D"/>
<path d="M1865.11 995.925C1867.55 995.925 1869.54 993.942 1869.54 991.495C1869.54 989.048 1867.55 987.065 1865.11 987.065C1862.66 987.065 1860.68 989.048 1860.68 991.495C1860.68 993.942 1862.66 995.925 1865.11 995.925Z" fill="#E06C2D"/>
<path d="M1865.11 1034.54C1867.55 1034.54 1869.54 1032.55 1869.54 1030.11C1869.54 1027.66 1867.55 1025.68 1865.11 1025.68C1862.66 1025.68 1860.68 1027.66 1860.68 1030.11C1860.68 1032.55 1862.66 1034.54 1865.11 1034.54Z" fill="#E06C2D"/>
<path d="M1865.11 880.086C1867.55 880.086 1869.54 878.102 1869.54 875.656C1869.54 873.209 1867.55 871.226 1865.11 871.226C1862.66 871.226 1860.68 873.209 1860.68 875.656C1860.68 878.102 1862.66 880.086 1865.11 880.086Z" fill="#E06C2D"/>
<path d="M1865.11 957.311C1867.55 957.311 1869.54 955.328 1869.54 952.881C1869.54 950.435 1867.55 948.452 1865.11 948.452C1862.66 948.452 1860.68 950.435 1860.68 952.881C1860.68 955.328 1862.66 957.311 1865.11 957.311Z" fill="#E06C2D"/>
</g>
</g>
<defs>
<clipPath id="clip0_1485_31863">
<rect width="1920" height="1080" fill="white"/>
</clipPath>
<clipPath id="clip1_1485_31863">
<rect width="230" height="230" fill="white" transform="translate(274 584)"/>
</clipPath>
<clipPath id="clip2_1485_31863">
<rect width="241" height="241" fill="white" transform="translate(1629 794)"/>
</clipPath>
</defs>
</svg>
