<svg width="59" height="59" viewBox="0 0 59 59" fill="none" xmlns="http://www.w3.org/2000/svg">
<g clip-path="url(#clip0_464_11820)">
<path d="M39.2307 27.0578C43.2211 27.0578 46.4182 23.8367 46.4182 19.8463C46.4182 15.8559 43.2211 12.6348 39.2307 12.6348C35.2403 12.6348 32.0192 15.8559 32.0192 19.8463C32.0192 23.8367 35.2403 27.0578 39.2307 27.0578ZM20 27.0578C23.9903 27.0578 27.1875 23.8367 27.1875 19.8463C27.1875 15.8559 23.9903 12.6348 20 12.6348C16.0096 12.6348 12.7884 15.8559 12.7884 19.8463C12.7884 23.8367 16.0096 27.0578 20 27.0578ZM20 31.8655C14.399 31.8655 3.17303 34.678 3.17303 40.279V46.2886H36.8269V40.279C36.8269 34.678 25.6009 31.8655 20 31.8655ZM39.2307 31.8655C38.5336 31.8655 37.7403 31.9136 36.899 31.9857C39.6875 34.005 41.6346 36.7213 41.6346 40.279V46.2886H56.0577V40.279C56.0577 34.678 44.8317 31.8655 39.2307 31.8655Z" fill="#E06C2D"/>
</g>
<defs>
<clipPath id="clip0_464_11820">
<rect width="57.6923" height="57.6923" fill="white" transform="translate(0.769165 0.615234)"/>
</clipPath>
</defs>
</svg>
