<svg width="61" height="58" viewBox="0 0 61 58" fill="none" xmlns="http://www.w3.org/2000/svg">
<g clip-path="url(#clip0_464_10145)">
<path d="M55.7692 17.0865V38.7692C55.7692 41.4134 53.5192 43.5769 50.7692 43.5769H15.7692L5.76917 53.1922V9.923C5.76917 7.27877 8.01917 5.11531 10.7692 5.11531H36.0192C35.8692 5.88454 35.7692 6.70185 35.7692 7.51916C35.7692 14.1538 41.3692 19.5384 48.2692 19.5384C51.0942 19.5384 53.6692 18.6009 55.7692 17.0865ZM40.7692 7.51916C40.7692 11.5095 44.1192 14.7307 48.2692 14.7307C52.4192 14.7307 55.7692 11.5095 55.7692 7.51916C55.7692 3.52877 52.4192 0.307617 48.2692 0.307617C44.1192 0.307617 40.7692 3.52877 40.7692 7.51916Z" fill="#E06C2D"/>
</g>
<defs>
<clipPath id="clip0_464_10145">
<rect width="60" height="57.6923" fill="white" transform="translate(0.769165 0.307617)"/>
</clipPath>
</defs>
</svg>
