<svg width="59" height="58" viewBox="0 0 59 58" fill="none" xmlns="http://www.w3.org/2000/svg">
<path d="M29.6153 52.8845C28.2932 52.8845 27.1614 52.4138 26.2199 51.4723C25.2784 50.5308 24.8076 49.399 24.8076 48.0769H34.423C34.423 49.399 33.9522 50.5308 33.0107 51.4723C32.0692 52.4138 30.9374 52.8845 29.6153 52.8845ZM12.7884 45.673C12.1073 45.673 11.5364 45.4426 11.0756 44.9819C10.6149 44.5212 10.3845 43.9502 10.3845 43.2692C10.3845 42.5881 10.6149 42.0172 11.0756 41.5564C11.5364 41.0957 12.1073 40.8653 12.7884 40.8653H15.1922V24.0384C15.1922 20.7131 16.1938 17.7583 18.197 15.1742C20.2002 12.5901 22.8044 10.8974 26.0095 10.0961V8.41339C26.0095 7.41178 26.3601 6.56042 27.0612 5.8593C27.7623 5.15818 28.6137 4.80762 29.6153 4.80762C30.6169 4.80762 31.4683 5.15818 32.1694 5.8593C32.8705 6.56042 33.2211 7.41178 33.2211 8.41339V9.19464C32.8204 9.99592 32.5199 10.8373 32.3196 11.7187C32.1193 12.6001 32.0191 13.5015 32.0191 14.423C32.0191 17.7483 33.191 20.5829 35.5348 22.9266C37.8785 25.2704 40.713 26.4422 44.0384 26.4422V40.8653H46.4422C47.1233 40.8653 47.6942 41.0957 48.155 41.5564C48.6157 42.0172 48.8461 42.5881 48.8461 43.2692C48.8461 43.9502 48.6157 44.5212 48.155 44.9819C47.6942 45.4426 47.1233 45.673 46.4422 45.673H12.7884ZM44.0384 21.6345C42.0352 21.6345 40.3324 20.9334 38.9302 19.5312C37.528 18.1289 36.8268 16.4262 36.8268 14.423C36.8268 12.4198 37.528 10.7171 38.9302 9.31483C40.3324 7.91259 42.0352 7.21146 44.0384 7.21146C46.0416 7.21146 47.7443 7.91259 49.1465 9.31483C50.5488 10.7171 51.2499 12.4198 51.2499 14.423C51.2499 16.4262 50.5488 18.1289 49.1465 19.5312C47.7443 20.9334 46.0416 21.6345 44.0384 21.6345Z" fill="#E06C2D"/>
</svg>
