<svg width="87" height="64" viewBox="0 0 87 64" fill="none" xmlns="http://www.w3.org/2000/svg">
<path d="M74 27.7L68.4 33.2C67.6667 33.9333 66.75 34.3167 65.65 34.35C64.55 34.3833 63.6 34 62.8 33.2C62.0667 32.4667 61.7 31.5333 61.7 30.4C61.7 29.2667 62.0667 28.3333 62.8 27.6L68.3 22L62.8 16.5C62.0667 15.7667 61.7 14.85 61.7 13.75C61.7 12.65 62.0667 11.7 62.8 10.9C63.6 10.1 64.55 9.7 65.65 9.7C66.75 9.7 67.7 10.1 68.5 10.9L74 16.4L79.5 10.8C80.2333 10 81.15 9.6 82.25 9.6C83.35 9.6 84.3 10 85.1 10.8C85.9 11.6 86.3 12.55 86.3 13.65C86.3 14.75 85.9 15.7 85.1 16.5L79.6 22L85.2 27.6C86 28.4 86.3833 29.3333 86.35 30.4C86.3167 31.4667 85.9 32.4 85.1 33.2C84.3 33.9333 83.3667 34.3167 82.3 34.35C81.2333 34.3833 80.3 34 79.5 33.2L74 27.7ZM32 32C27.6 32 23.8333 30.4333 20.7 27.3C17.5667 24.1667 16 20.4 16 16C16 11.6 17.5667 7.83333 20.7 4.7C23.8333 1.56667 27.6 0 32 0C36.4 0 40.1667 1.56667 43.3 4.7C46.4333 7.83333 48 11.6 48 16C48 20.4 46.4333 24.1667 43.3 27.3C40.1667 30.4333 36.4 32 32 32ZM0 56V52.8C0 50.5333 0.583333 48.45 1.75 46.55C2.91667 44.65 4.46667 43.2 6.4 42.2C10.5333 40.1333 14.7333 38.5833 19 37.55C23.2667 36.5167 27.6 36 32 36C36.4 36 40.7333 36.5167 45 37.55C49.2667 38.5833 53.4667 40.1333 57.6 42.2C59.5333 43.2 61.0833 44.65 62.25 46.55C63.4167 48.45 64 50.5333 64 52.8V56C64 58.2 63.2167 60.0833 61.65 61.65C60.0833 63.2167 58.2 64 56 64H8C5.8 64 3.91667 63.2167 2.35 61.65C0.783333 60.0833 0 58.2 0 56Z" fill="#D34747"/>
</svg>
