<svg width="88" height="64" viewBox="0 0 88 64" fill="none" xmlns="http://www.w3.org/2000/svg">
<path d="M66.2 20.7L80.3 6.5C81.1 5.7 82.05 5.3 83.15 5.3C84.25 5.3 85.2 5.7 86 6.5C86.8 7.3 87.2 8.25 87.2 9.35C87.2 10.45 86.8 11.4 86 12.2L69 29.2C68.2 30 67.2667 30.4 66.2 30.4C65.1333 30.4 64.2 30 63.4 29.2L54.9 20.7C54.1 19.9 53.7 18.95 53.7 17.85C53.7 16.75 54.1 15.8 54.9 15C55.7 14.2 56.6333 13.8 57.7 13.8C58.7667 13.8 59.7 14.2 60.5 15L66.2 20.7ZM32 32C27.6 32 23.8333 30.4333 20.7 27.3C17.5667 24.1667 16 20.4 16 16C16 11.6 17.5667 7.83333 20.7 4.7C23.8333 1.56667 27.6 0 32 0C36.4 0 40.1667 1.56667 43.3 4.7C46.4333 7.83333 48 11.6 48 16C48 20.4 46.4333 24.1667 43.3 27.3C40.1667 30.4333 36.4 32 32 32ZM0 56V52.8C0 50.5333 0.583333 48.45 1.75 46.55C2.91667 44.65 4.46667 43.2 6.4 42.2C10.5333 40.1333 14.7333 38.5833 19 37.55C23.2667 36.5167 27.6 36 32 36C36.4 36 40.7333 36.5167 45 37.55C49.2667 38.5833 53.4667 40.1333 57.6 42.2C59.5333 43.2 61.0833 44.65 62.25 46.55C63.4167 48.45 64 50.5333 64 52.8V56C64 58.2 63.2167 60.0833 61.65 61.65C60.0833 63.2167 58.2 64 56 64H8C5.8 64 3.91667 63.2167 2.35 61.65C0.783333 60.0833 0 58.2 0 56Z" fill="#8CDD56"/>
</svg>
