<svg width="179" height="204" viewBox="0 0 179 204" fill="none" xmlns="http://www.w3.org/2000/svg">
<g filter="url(#filter0_d_556_34200)">
<path fill-rule="evenodd" clip-rule="evenodd" d="M69.7692 27.7599L69.4338 35.3625L77.5708 40.501L81.3619 28.297C79.0009 27.8284 74.0514 27.4506 69.7692 27.7599ZM65.9098 61.764L40.9694 44.6884C40.9694 44.6884 43.6214 42.3204 47.8576 40.3601C52.0937 38.3997 56.2795 37.6034 56.2795 37.6034L65.9098 61.764ZM47.5503 66.9306L95.5748 91.2092L79.7709 65.3997L101.995 68.0456L94.4423 47.4395C126.403 50.6512 151.526 83.5223 151.526 123.599C151.526 125.073 151.492 126.537 151.425 127.991C131.136 137.603 117.871 149.069 120.295 155.88C120.523 156.521 120.781 157.193 121.046 157.883L121.046 157.883L121.046 157.883C122.724 162.253 124.66 167.292 120.757 169.129C110.989 173.727 100.383 176.247 89.298 176.247C78.2118 176.247 67.6045 173.727 57.8358 169.128C53.9338 167.29 55.8687 162.252 57.5471 157.882L57.5471 157.882L57.5474 157.881C57.8119 157.193 58.0701 156.52 58.298 155.88C60.7214 149.07 47.4584 137.604 27.1714 127.992C27.1347 127.194 27.1078 126.393 27.0905 125.589C27.0771 124.927 27.0703 124.264 27.0703 123.599C27.0703 101.123 34.9721 80.9132 47.5503 66.9306ZM81.0436 118.4C81.0436 128.586 72.9854 136.844 63.0445 136.844C53.1036 136.844 45.0454 128.586 45.0454 118.4C45.0454 108.214 53.1036 99.9566 63.0445 99.9566C72.9854 99.9566 81.0436 108.214 81.0436 118.4ZM115.551 136.844C125.492 136.844 133.55 128.586 133.55 118.4C133.55 108.214 125.492 99.9566 115.551 99.9566C105.61 99.9566 97.5516 108.214 97.5516 118.4C97.5516 128.586 105.61 136.844 115.551 136.844ZM90.0282 136.019L99.1348 165.295C99.1348 165.295 93.1391 166.866 89.2972 166.866C85.4561 166.866 79.4604 165.295 79.4604 165.295L88.5671 136.019C88.794 135.289 89.8012 135.289 90.0282 136.019Z" fill="url(#paint0_linear_556_34200)" shape-rendering="crispEdges"/>
</g>
<defs>
<filter id="filter0_d_556_34200" x="0.0772228" y="0.654371" width="178.441" height="202.586" filterUnits="userSpaceOnUse" color-interpolation-filters="sRGB">
<feFlood flood-opacity="0" result="BackgroundImageFix"/>
<feColorMatrix in="SourceAlpha" type="matrix" values="0 0 0 0 0 0 0 0 0 0 0 0 0 0 0 0 0 0 127 0" result="hardAlpha"/>
<feOffset/>
<feGaussianBlur stdDeviation="13.4965"/>
<feComposite in2="hardAlpha" operator="out"/>
<feColorMatrix type="matrix" values="0 0 0 0 0.204167 0 0 0 0 0.95225 0 0 0 0 1 0 0 0 0.7 0"/>
<feBlend mode="normal" in2="BackgroundImageFix" result="effect1_dropShadow_556_34200"/>
<feBlend mode="normal" in="SourceGraphic" in2="effect1_dropShadow_556_34200" result="shape"/>
</filter>
<linearGradient id="paint0_linear_556_34200" x1="89.2981" y1="101.947" x2="89.2975" y2="217.749" gradientUnits="userSpaceOnUse">
<stop stop-color="white"/>
<stop offset="1" stop-color="white" stop-opacity="0"/>
</linearGradient>
</defs>
</svg>
