<svg width="30" height="30" viewBox="0 0 30 30" fill="none" xmlns="http://www.w3.org/2000/svg">
<path fill-rule="evenodd" clip-rule="evenodd" d="M18.125 3.75H21.1607L16.5179 11.875L21.875 21.25H16.25L15.5357 20H18.125L15 14.5313L11.875 20H14.4643L13.75 21.25H8.125L13.4821 11.875L8.83928 3.75H11.875L15 9.21875L18.125 3.75Z" fill="#AF3838"/>
<path fill-rule="evenodd" clip-rule="evenodd" d="M21.7013 3.4363C21.8131 3.62899 21.8139 3.86665 21.7034 4.06009L17.2377 11.875L22.4177 20.9399C22.5282 21.1334 22.5274 21.371 22.4156 21.5637C22.3037 21.7564 22.0978 21.875 21.875 21.875H16.25C16.0257 21.875 15.8186 21.7548 15.7073 21.5601L15 20.3222L14.2927 21.5601C14.1814 21.7548 13.9743 21.875 13.75 21.875H8.125C7.90221 21.875 7.69626 21.7564 7.58443 21.5637C7.4726 21.371 7.47181 21.1334 7.58235 20.9399L12.7623 11.875L8.29663 4.06009C8.18609 3.86665 8.18689 3.62899 8.29871 3.4363C8.41054 3.2436 8.61649 3.125 8.83928 3.125H11.875C12.0993 3.125 12.3064 3.24518 12.4177 3.43991L15 7.95902L17.5823 3.43991C17.6936 3.24518 17.9007 3.125 18.125 3.125H21.1607C21.3835 3.125 21.5895 3.2436 21.7013 3.4363ZM15 9.21875L11.875 3.75H8.83928L13.4821 11.875L8.125 21.25H13.75L14.4643 20H11.875L15 14.5313L18.125 20H15.5357L16.25 21.25H21.875L16.5179 11.875L21.1607 3.75H18.125L15 9.21875ZM17.048 19.375L15 15.791L12.952 19.375H14.4643C14.6839 19.375 14.8871 19.4902 15 19.6781C15.1129 19.4902 15.3161 19.375 15.5357 19.375H17.048Z" fill="#6F0808"/>
<path fill-rule="evenodd" clip-rule="evenodd" d="M8.75 2.5H3.125L8.53248 11.9631C9.71212 10.8386 11.1845 10.0186 12.8237 9.62891L8.75 2.5ZM17.1763 9.62891C18.8155 10.0186 20.2879 10.8386 21.4675 11.9631L26.875 2.5H21.25L17.1763 9.62891Z" fill="#D14848"/>
<path fill-rule="evenodd" clip-rule="evenodd" d="M2.58443 2.1863C2.69626 1.9936 2.90221 1.875 3.125 1.875H8.75C8.97429 1.875 9.18137 1.99518 9.29265 2.18991L13.3663 9.31883C13.464 9.48982 13.4754 9.69686 13.3971 9.87755C13.3187 10.0582 13.1598 10.1914 12.9682 10.237C11.4395 10.6004 10.0653 11.3654 8.96372 12.4155C8.82462 12.5481 8.63226 12.6093 8.44211 12.5815C8.25197 12.5537 8.08517 12.44 7.98983 12.2732L2.58235 2.81009C2.47181 2.61665 2.4726 2.37899 2.58443 2.1863ZM16.6029 9.87755C16.5246 9.69686 16.536 9.48982 16.6337 9.31883L20.7073 2.18991C20.8186 1.99518 21.0257 1.875 21.25 1.875H26.875C27.0978 1.875 27.3037 1.9936 27.4156 2.1863C27.5274 2.37899 27.5282 2.61665 27.4177 2.81009L22.0102 12.2732C21.9148 12.44 21.748 12.5537 21.5579 12.5815C21.3677 12.6093 21.1754 12.5481 21.0363 12.4155C19.9347 11.3654 18.5605 10.6004 17.0318 10.237C16.8402 10.1914 16.6813 10.0582 16.6029 9.87755ZM3.125 2.5L8.53248 11.9631C8.6866 11.8162 8.84572 11.6745 9.00955 11.5382C9.93887 10.7654 11.0199 10.1689 12.2015 9.79981C12.406 9.73594 12.6134 9.67889 12.8237 9.62891L8.75 2.5H3.125ZM20.9905 11.5382C21.1543 11.6745 21.3134 11.8162 21.4675 11.9631L26.875 2.5H21.25L17.1763 9.62891C17.3866 9.67889 17.594 9.73594 17.7985 9.79981C18.9801 10.1689 20.0611 10.7654 20.9905 11.5382Z" fill="#6F0808"/>
<path fill-rule="evenodd" clip-rule="evenodd" d="M3.90576 2.85473C4.05506 2.76814 4.24628 2.81897 4.33287 2.96826L8.86412 10.7808C8.95071 10.9301 8.89988 11.1213 8.75059 11.2079C8.60129 11.2945 8.41007 11.2436 8.32348 11.0943L3.79223 3.28184C3.70564 3.13254 3.75647 2.94132 3.90576 2.85473Z" fill="#FF7E7E"/>
<path fill-rule="evenodd" clip-rule="evenodd" d="M21.7183 2.85414C21.8679 2.94018 21.9195 3.13121 21.8335 3.28082L18.2397 9.53082C18.1537 9.68044 17.9626 9.73199 17.813 9.64596C17.6634 9.55993 17.6119 9.3689 17.6979 9.21928L21.2916 2.96928C21.3777 2.81966 21.5687 2.76811 21.7183 2.85414Z" fill="#FF7E7E"/>
<path d="M23.75 18.75C23.75 23.5825 19.8325 27.5 15 27.5C10.1675 27.5 6.25 23.5825 6.25 18.75C6.25 13.9175 10.1675 10 15 10C19.8325 10 23.75 13.9175 23.75 18.75Z" fill="#FFB423"/>
<path fill-rule="evenodd" clip-rule="evenodd" d="M24.375 18.75C24.375 23.9277 20.1777 28.125 15 28.125C9.82233 28.125 5.625 23.9277 5.625 18.75C5.625 13.5723 9.82233 9.375 15 9.375C20.1777 9.375 24.375 13.5723 24.375 18.75ZM15 27.5C19.8325 27.5 23.75 23.5825 23.75 18.75C23.75 13.9175 19.8325 10 15 10C10.1675 10 6.25 13.9175 6.25 18.75C6.25 23.5825 10.1675 27.5 15 27.5Z" fill="#5B3303"/>
<path d="M22.1875 18.75C22.1875 22.7195 18.9695 25.9375 15 25.9375C11.0305 25.9375 7.8125 22.7195 7.8125 18.75C7.8125 14.7805 11.0305 11.5625 15 11.5625C18.9695 11.5625 22.1875 14.7805 22.1875 18.75Z" fill="#FFDD65"/>
<path d="M19.5818 24.4241C19.6314 24.7657 19.3948 25.0828 19.0532 25.1325C18.7116 25.1821 18.3944 24.9454 18.3448 24.6039C18.2951 24.2623 18.5318 23.9451 18.8734 23.8955C19.215 23.8458 19.5321 24.0825 19.5818 24.4241Z" fill="#FBCD2C"/>
<path d="M19.3173 22.607C19.3639 22.9275 19.1418 23.2251 18.8213 23.2717C18.5008 23.3182 18.2032 23.0962 18.1566 22.7757C18.11 22.4551 18.3321 22.1575 18.6526 22.111C18.9731 22.0644 19.2707 22.2864 19.3173 22.607Z" fill="#FBCD2C"/>
<path d="M21.9327 20.7763C21.9699 21.0325 21.7924 21.2704 21.5362 21.3076C21.28 21.3448 21.0422 21.1673 21.0049 20.9111C20.9677 20.6549 21.1452 20.4171 21.4014 20.3798C21.6576 20.3426 21.8954 20.5201 21.9327 20.7763Z" fill="#FBCD2C"/>
<path d="M16.2253 25.2278C16.275 25.5694 16.0383 25.8865 15.6967 25.9362C15.3551 25.9858 15.038 25.7492 14.9883 25.4076C14.9387 25.066 15.1754 24.7488 15.5169 24.6992C15.8585 24.6495 16.1757 24.8862 16.2253 25.2278Z" fill="#FBCD2C"/>
<path d="M21.011 22.0673C21.0558 22.3756 20.8422 22.6618 20.5339 22.7066C20.2256 22.7514 19.9394 22.5379 19.8946 22.2296C19.8498 21.9213 20.0634 21.6351 20.3717 21.5903C20.6799 21.5455 20.9662 21.759 21.011 22.0673Z" fill="#FBCD2C"/>
<path d="M20.6634 19.9967C20.6883 20.1675 20.5699 20.3261 20.3991 20.3509C20.2283 20.3757 20.0698 20.2574 20.0449 20.0866C20.0201 19.9158 20.1385 19.7572 20.3093 19.7324C20.48 19.7076 20.6386 19.8259 20.6634 19.9967Z" fill="#FBCD2C"/>
<path d="M16.9134 24.0592C16.9383 24.23 16.8199 24.3886 16.6491 24.4134C16.4783 24.4382 16.3198 24.3199 16.2949 24.1491C16.2701 23.9783 16.3885 23.8197 16.5593 23.7949C16.73 23.7701 16.8886 23.8884 16.9134 24.0592Z" fill="#FBCD2C"/>
<path d="M21.0384 23.5807C21.0633 23.7515 20.9449 23.9101 20.7741 23.9349C20.6033 23.9597 20.4448 23.8414 20.4199 23.6706C20.3951 23.4998 20.5135 23.3412 20.6843 23.3164C20.855 23.2916 21.0136 23.4099 21.0384 23.5807Z" fill="#FBCD2C"/>
<path d="M17.5384 24.9967C17.5633 25.1675 17.4449 25.3261 17.2741 25.3509C17.1033 25.3757 16.9448 25.2574 16.9199 25.0866C16.8951 24.9158 17.0135 24.7572 17.1843 24.7324C17.355 24.7076 17.5136 24.8259 17.5384 24.9967Z" fill="#FBCD2C"/>
<path d="M14.1049 25.8517C14.1297 26.0225 14.0113 26.1811 13.8406 26.2059C13.6698 26.2307 13.5112 26.1124 13.4864 25.9416C13.4615 25.7708 13.5799 25.6122 13.7507 25.5874C13.9215 25.5626 14.08 25.6809 14.1049 25.8517Z" fill="#FBCD2C"/>
<path fill-rule="evenodd" clip-rule="evenodd" d="M15 11.5625C11.0305 11.5625 7.8125 14.7805 7.8125 18.75C7.8125 22.7195 11.0305 25.9375 15 25.9375C18.9695 25.9375 22.1875 22.7195 22.1875 18.75C22.1875 14.7805 18.9695 11.5625 15 11.5625ZM7.1875 18.75C7.1875 14.4353 10.6853 10.9375 15 10.9375C19.3147 10.9375 22.8125 14.4353 22.8125 18.75C22.8125 23.0647 19.3147 26.5625 15 26.5625C10.6853 26.5625 7.1875 23.0647 7.1875 18.75Z" fill="#DF8D12"/>
<path fill-rule="evenodd" clip-rule="evenodd" d="M15 10.9375C10.6853 10.9375 7.1875 14.4353 7.1875 18.75C7.1875 18.9226 7.04759 19.0625 6.875 19.0625C6.70241 19.0625 6.5625 18.9226 6.5625 18.75C6.5625 14.0901 10.3401 10.3125 15 10.3125C15.1726 10.3125 15.3125 10.4524 15.3125 10.625C15.3125 10.7976 15.1726 10.9375 15 10.9375Z" fill="#FFCF72"/>
<path d="M20.3125 18.75C20.3125 21.684 17.934 24.0625 15 24.0625C12.066 24.0625 9.6875 21.684 9.6875 18.75C9.6875 15.816 12.066 13.4375 15 13.4375C17.934 13.4375 20.3125 15.816 20.3125 18.75Z" fill="#FFCF23"/>
<path fill-rule="evenodd" clip-rule="evenodd" d="M20.9375 18.75C20.9375 22.0292 18.2792 24.6875 15 24.6875C11.7208 24.6875 9.0625 22.0292 9.0625 18.75C9.0625 15.4708 11.7208 12.8125 15 12.8125C18.2792 12.8125 20.9375 15.4708 20.9375 18.75ZM15 24.0625C17.934 24.0625 20.3125 21.684 20.3125 18.75C20.3125 15.816 17.934 13.4375 15 13.4375C12.066 13.4375 9.6875 15.816 9.6875 18.75C9.6875 21.684 12.066 24.0625 15 24.0625Z" fill="#DF8D12"/>
<path fill-rule="evenodd" clip-rule="evenodd" d="M15 14.0625C12.4112 14.0625 10.3125 16.1612 10.3125 18.75C10.3125 18.9226 10.1726 19.0625 10 19.0625C9.82741 19.0625 9.6875 18.9226 9.6875 18.75C9.6875 15.816 12.066 13.4375 15 13.4375C15.1726 13.4375 15.3125 13.5774 15.3125 13.75C15.3125 13.9226 15.1726 14.0625 15 14.0625Z" fill="#FFF4CD"/>
<path d="M11.875 18L13.8281 17.6042L14.4141 16.6146L15 15.625L16.1719 17.6042L18.125 18L16.5625 19.5833L16.9531 21.5625L15 20.5729L13.0469 21.5625L13.4375 19.5833L11.875 18Z" fill="#FFE9AF"/>
<path fill-rule="evenodd" clip-rule="evenodd" d="M13.8281 17.6042L15 15.625L16.1719 17.6042L18.125 18L16.5625 19.5833L16.9531 21.5625L15 20.5729L13.0469 21.5625L13.4375 19.5833L11.875 18L13.8281 17.6042ZM12.7603 19.7869L11.4302 18.439C11.269 18.2757 11.2103 18.0372 11.2772 17.8177C11.3441 17.5982 11.526 17.433 11.7509 17.3875L13.4318 17.0468L14.4622 15.3066C14.5747 15.1165 14.7792 15 15 15C15.2209 15 15.4253 15.1165 15.5378 15.3066L16.5682 17.0468L18.2492 17.3875C18.4741 17.433 18.6559 17.5982 18.7228 17.8177C18.7898 18.0372 18.7311 18.2757 18.5699 18.439L17.2397 19.7869L17.5663 21.4415C17.6126 21.676 17.5211 21.9163 17.3306 22.0607C17.14 22.205 16.8839 22.2281 16.6707 22.12L15 21.2736L13.3294 22.12C13.1162 22.2281 12.86 22.205 12.6695 22.0607C12.479 21.9163 12.3874 21.676 12.4337 21.4415L12.7603 19.7869Z" fill="#C37808"/>
<path d="M24.0625 3.75C24.0625 3.92259 23.9226 4.0625 23.75 4.0625C23.5774 4.0625 23.4375 3.92259 23.4375 3.75C23.4375 3.57741 23.5774 3.4375 23.75 3.4375C23.9226 3.4375 24.0625 3.57741 24.0625 3.75Z" fill="#A63434"/>
<path d="M25.3125 3.75C25.3125 3.92259 25.1726 4.0625 25 4.0625C24.8274 4.0625 24.6875 3.92259 24.6875 3.75C24.6875 3.57741 24.8274 3.4375 25 3.4375C25.1726 3.4375 25.3125 3.57741 25.3125 3.75Z" fill="#A63434"/>
<path d="M23.75 6.875C23.75 7.04759 23.6101 7.1875 23.4375 7.1875C23.2649 7.1875 23.125 7.04759 23.125 6.875C23.125 6.70241 23.2649 6.5625 23.4375 6.5625C23.6101 6.5625 23.75 6.70241 23.75 6.875Z" fill="#A63434"/>
<path d="M22.5 8.75C22.5 8.92259 22.3601 9.0625 22.1875 9.0625C22.0149 9.0625 21.875 8.92259 21.875 8.75C21.875 8.57741 22.0149 8.4375 22.1875 8.4375C22.3601 8.4375 22.5 8.57741 22.5 8.75Z" fill="#A63434"/>
<path d="M22.8125 4.6875C22.8125 4.86009 22.6726 5 22.5 5C22.3274 5 22.1875 4.86009 22.1875 4.6875C22.1875 4.51491 22.3274 4.375 22.5 4.375C22.6726 4.375 22.8125 4.51491 22.8125 4.6875Z" fill="#A63434"/>
<path d="M24.0625 5.46875C24.0625 5.72763 23.8526 5.9375 23.5938 5.9375C23.3349 5.9375 23.125 5.72763 23.125 5.46875C23.125 5.20987 23.3349 5 23.5938 5C23.8526 5 24.0625 5.20987 24.0625 5.46875Z" fill="#A63434"/>
<path d="M22.8125 7.03125C22.8125 7.29013 22.6026 7.5 22.3438 7.5C22.0849 7.5 21.875 7.29013 21.875 7.03125C21.875 6.77237 22.0849 6.5625 22.3438 6.5625C22.6026 6.5625 22.8125 6.77237 22.8125 7.03125Z" fill="#A63434"/>
</svg>
