<svg width="214" height="195" viewBox="0 0 214 195" fill="none" xmlns="http://www.w3.org/2000/svg">
<g filter="url(#filter0_d_556_30558)">
<path fill-rule="evenodd" clip-rule="evenodd" d="M106.765 56.3595C114.873 56.3595 121.445 49.7871 121.445 41.6797C121.445 33.5723 114.873 27 106.765 27C98.6578 27 92.0855 33.5723 92.0855 41.6797C92.0855 49.7871 98.6578 56.3595 106.765 56.3595ZM173.449 79.7969C180.561 79.7969 186.326 74.0314 186.326 66.9193C186.326 59.8072 180.561 54.0417 173.449 54.0417C166.337 54.0417 160.571 59.8072 160.571 66.9193C160.571 74.0314 166.337 79.7969 173.449 79.7969ZM41.3007 84.6011C44.6091 84.4805 47.659 83.3468 50.1493 81.5009C54.2539 93.5207 66.3137 101.466 79.4352 99.9082C94.5284 98.1158 105.311 84.4274 103.518 69.3342L102.537 61.0731C103.917 61.0401 105.324 61.0232 106.759 61.0232C108.196 61.0232 109.604 61.0401 110.984 61.0732L110.003 69.3342C108.21 84.4274 118.993 98.1158 134.086 99.9082C147.207 101.466 159.266 93.5214 163.371 81.5027C165.861 83.3476 168.91 84.4807 172.218 84.6011L160.962 130.298C160.187 133.444 158.28 136.188 155.292 137.441C148.604 140.245 133.789 144.656 106.76 144.656C75.1915 144.656 61.7177 139.86 56.5687 137.091C54.5929 136.028 53.4789 134.035 52.9422 131.857L41.3007 84.6011ZM106.761 130.253C111.717 130.253 115.734 124.346 115.734 117.058C115.734 109.771 111.717 103.864 106.761 103.864C101.806 103.864 97.7888 109.771 97.7888 117.058C97.7888 124.346 101.806 130.253 106.761 130.253ZM158.131 141.739C150.487 146.386 130.373 149.711 106.763 149.711C82.4177 149.711 61.7894 146.176 54.717 141.3C53.0199 143.838 52.1033 147.434 52.1033 152.448C52.1033 157.083 76.575 167.301 106.763 167.301C136.951 167.301 161.423 156.805 161.423 152.448C161.423 147.537 160.261 144.104 158.131 141.739ZM52.7551 67.0245C52.7551 74.1366 46.9896 79.9021 39.8776 79.9021C32.7655 79.9021 27 74.1366 27 67.0245C27 59.9124 32.7655 54.1469 39.8776 54.1469C46.9896 54.1469 52.7551 59.9124 52.7551 67.0245Z" fill="url(#paint0_linear_556_30558)" shape-rendering="crispEdges"/>
</g>
<defs>
<filter id="filter0_d_556_30558" x="0.00691032" y="0.00691032" width="213.312" height="194.287" filterUnits="userSpaceOnUse" color-interpolation-filters="sRGB">
<feFlood flood-opacity="0" result="BackgroundImageFix"/>
<feColorMatrix in="SourceAlpha" type="matrix" values="0 0 0 0 0 0 0 0 0 0 0 0 0 0 0 0 0 0 127 0" result="hardAlpha"/>
<feOffset/>
<feGaussianBlur stdDeviation="13.4965"/>
<feComposite in2="hardAlpha" operator="out"/>
<feColorMatrix type="matrix" values="0 0 0 0 1 0 0 0 0 0.407843 0 0 0 0 0.219608 0 0 0 1 0"/>
<feBlend mode="normal" in2="BackgroundImageFix" result="effect1_dropShadow_556_30558"/>
<feBlend mode="normal" in="SourceGraphic" in2="effect1_dropShadow_556_30558" result="shape"/>
</filter>
<linearGradient id="paint0_linear_556_30558" x1="106.663" y1="97.1504" x2="106.663" y2="275.114" gradientUnits="userSpaceOnUse">
<stop stop-color="white"/>
<stop offset="1" stop-color="white" stop-opacity="0"/>
</linearGradient>
</defs>
</svg>
